<?xml version="1.0" encoding="utf-8"?>
<!-- Generator: Adobe Illustrator 23.0.5, SVG Export Plug-In . SVG Version: 6.00 Build 0)  -->
<svg version="1.1" id="Layer_1" xmlns="http://www.w3.org/2000/svg" xmlns:xlink="http://www.w3.org/1999/xlink" x="0px" y="0px"
	 viewBox="0 0 1560 642" style="enable-background:new 0 0 1560 642;" xml:space="preserve">
<style type="text/css">
	.st0{fill:#E5E5E5;}
	.st1{fill:#735CCB;}
	.st2{fill:#CECECE;}
</style>
<path id="Path_566" class="st0" d="M362.9,334c-31.1-45.9-73.5-147.4-74.4-334.2C132.6-0.9,36.9,0.3-0.9-0.9
	C-0.4,98.9,0.8,358,0.8,358v231.5c0,0,276.7,0.9,442.6,1c70.1,0,120.5-0.1,121.1-0.4c35.3-64-91.1-163.9-147-203.8
	C403.7,376.5,380.8,360.4,362.9,334z"/>
<path id="Path_565" class="st1" d="M883.9,0.1h675.4v503.7c0,0-4.8-8.1-128.4,32.9c-2.2,0.7-11.6,3.9-14.2,4.8
	c-71.8,25.6-178,88.5-272.1,99c-77.7,8.7-125.5-18.5-163.8-49.7c-31.9-28.2-37.8-74.7-37.2-108.8c0.4-23.6,10.5-58.2,12.6-85.9
	c3-39.1-2.8-100.2-49.6-162.1c-8.8-11.6-49.1-57-55.8-67.3C777,53,883.9,0.1,883.9,0.1z"/>
<circle id="Ellipse_136" class="st2" cx="418.6" cy="514.6" r="60.5"/>
<path id="Path_567" class="st2" d="M139.5,292.8C72.8,250.6,71.6,258.3-0.3,169c-0.9,0-0.6,421.2-0.6,421.2l170.1,0.3
	C222.8,534.3,258.5,375.7,139.5,292.8z"/>
</svg>
