<?xml version="1.0" encoding="utf-8"?>
<!-- Generator: Adobe Illustrator 24.2.1, SVG Export Plug-In . SVG Version: 6.00 Build 0)  -->
<svg version="1.1" id="Layer_1" xmlns="http://www.w3.org/2000/svg" xmlns:xlink="http://www.w3.org/1999/xlink" x="0px" y="0px"
	 viewBox="0 0 476 448" style="enable-background:new 0 0 476 448;" xml:space="preserve">
<style type="text/css">
	.st0{opacity:0.1;fill:#6C63FF;enable-background:new    ;}
	.st1{fill:#CED7E7;}
	.st2{opacity:0.1;enable-background:new    ;}
	.st3{fill:#FFA2A2;}
	.st4{opacity:5.000000e-02;enable-background:new    ;}
	.st5{fill:#FFFFFF;}
	.st6{fill:#FBB254;}
	.st7{fill:#D42D44;}
	.st8{fill:#F9F9F9;}
	.st9{fill:#E82F4F;}
	.st10{fill:#631421;}
	.st11{fill:#DFE6F5;}
	.st12{fill:#4C4C56;}
	.st13{fill:#EE6122;}
	.st14{opacity:0.15;fill:#130404;enable-background:new    ;}
</style>
<g id="Group_28" transform="translate(7024.239 -3092.772)">
	<rect id="Rectangle_53" x="-6865.4" y="3487.5" class="st0" width="99.2" height="12.8"/>
	<rect id="Rectangle_55" x="-6647" y="3284.5" class="st0" width="18.5" height="18.4"/>
	<rect id="Rectangle_56" x="-6647" y="3327.2" class="st0" width="18.5" height="18.4"/>
	<rect id="Rectangle_57" x="-6647" y="3369.9" class="st0" width="18.5" height="18.4"/>
	<rect id="Rectangle_58" x="-6647" y="3412.5" class="st0" width="18.5" height="18.4"/>
	<rect id="Rectangle_59" x="-6647" y="3455.2" class="st0" width="18.5" height="18.4"/>
	<rect id="Rectangle_60" x="-6647" y="3497.9" class="st0" width="18.5" height="18.4"/>
	<path id="Path_411" class="st0" d="M-6586,3519.2c-0.6,0.3-1.2,0.7-1.8,1v-0.3h-5.2v2.9l-1.1,0.5v-3.4h-5.2v5.6l-1.1,0.4v-6h-5.5
		v7.9l-1.1,0.3v-8.9L-6586,3519.2z"/>
	<path id="Path_413" class="st0" d="M-6762.2,3298c0,0,5.4,14.8-5.7,16.1c-1,0.5-2.3,0.3-3.1-0.5c0,0,0.8-0.3,0.1-1.7
		c-0.3-0.5-0.4-1.1-0.6-1.6c-0.2-0.8-0.1-1.5,0.2-2.2l0,0c0,0,0.5-4.7,7-8.4c0,0,1.2-1.7,1.6-1.7l-0.3,2.9c-1.2-0.2-2.4,0.1-3.4,0.8
		c0,0,3.3-0.9,3.4-0.4c0,0.1-0.2,1.5-0.2,1.5s-3.7-0.6-5.6,1.3c0,0,3.8-1.6,5.5-0.7l-0.5,2.1c0,0-3.8-0.8-6.2,1.2c0,0,4-1.5,6-0.8
		l-0.8,2c0,0-3.8-0.7-5.7,1c0,0,4.9-1.3,5.5-0.5c-0.3,0.8-0.8,1.5-1.3,2.2c0,0-2.7-0.4-3.7,0.7c0,0,3.3-0.5,3.5-0.2
		c-0.9,1.1-1.9,2-3.1,2.6c1.3-0.5,2.5-1.3,3.4-2.3c0.1,0.9-0.1,1.7-0.5,2.5c0,0,1.4-0.7,0.9-3c0.5-0.6,0.9-1.3,1.3-2
		c0.5,1.2,0.7,2.5,0.7,3.8c0,0,1.1-1.6-0.4-4.3l0.8-2c0,0,1.3,2.9,1.2,4.3c0,0,0.8-1.8-1.1-4.8l0.5-2c0.7,1.2,1.2,2.6,1.6,4
		c0,0,0.4-1.9-1.4-4.6l0.2-1.4c0,0,0.9,1.8,1.1,2.3c0.2,0.5,0.4,0.5,0.4,0.5c-0.2-1.2-0.7-2.4-1.4-3.4
		C-6762.5,3300-6762.4,3299-6762.2,3298z"/>
	<path id="Path_415" class="st0" d="M-6717.3,3406.4c0,0,5.4,14.8-5.7,16.1c-1,0.5-2.3,0.3-3.1-0.5c0,0,0.8-0.3,0.1-1.7
		c-0.3-0.5-0.4-1.1-0.6-1.6c-0.2-0.8-0.1-1.5,0.2-2.2l0,0c0,0,0.5-4.7,7-8.4c0,0,1.2-1.7,1.6-1.7l-0.3,2.9c-1.2-0.2-2.4,0.1-3.4,0.8
		c0,0,3.3-0.9,3.4-0.4c0,0.1-0.2,1.5-0.2,1.5s-3.7-0.5-5.6,1.3c0,0,3.8-1.6,5.6-0.7l-0.5,2.1c0,0-3.8-0.8-6.2,1.2c0,0,4-1.5,6-0.8
		l-0.8,2c0,0-3.8-0.7-5.7,1c0,0,4.9-1.3,5.5-0.5c-0.3,0.8-0.8,1.5-1.3,2.2c0,0-2.7-0.4-3.8,0.7c0,0,3.3-0.5,3.5-0.2
		c-0.9,1.1-1.9,1.9-3.1,2.6c1.3-0.5,2.5-1.3,3.4-2.3c0.1,0.9-0.1,1.7-0.5,2.5c0,0,1.4-0.7,0.9-3c0.5-0.6,0.9-1.3,1.3-2
		c0.5,1.2,0.7,2.5,0.7,3.8c0,0,1.1-1.6-0.4-4.3l0.8-2c0,0,1.3,2.9,1.2,4.3c0,0,0.8-1.8-1.1-4.8l0.5-2c0.7,1.2,1.2,2.6,1.6,4
		c0,0,0.4-1.9-1.4-4.6l0.2-1.4c0,0,0.9,1.8,1.1,2.3c0.2,0.5,0.4,0.5,0.4,0.5c-0.2-1.2-0.7-2.4-1.4-3.4
		C-6717.6,3408.3-6717.5,3407.4-6717.3,3406.4z"/>
	<path id="Path_416" class="st0" d="M-6695.9,3267.1c0,0,5.4,14.8-5.7,16.1c-1,0.5-2.3,0.3-3.1-0.5c0,0,0.8-0.3,0.1-1.7
		c-0.2-0.5-0.4-1.1-0.6-1.6c-0.2-0.8-0.1-1.5,0.2-2.2l0,0c0,0,0.5-4.7,7-8.4c0,0,1.2-1.7,1.6-1.7l-0.3,2.9c-1.2-0.2-2.4,0.1-3.4,0.8
		c0,0,3.3-0.9,3.4-0.4c0,0.1-0.2,1.5-0.2,1.5s-3.7-0.6-5.6,1.3c0,0,3.8-1.6,5.6-0.7l-0.5,2.1c0,0-3.8-0.8-6.2,1.2c0,0,4.1-1.5,6-0.8
		l-0.8,2c0,0-3.8-0.7-5.7,1c0,0,4.9-1.3,5.5-0.5c-0.3,0.8-0.8,1.5-1.3,2.2c0,0-2.7-0.4-3.8,0.7c0,0,3.3-0.5,3.5-0.2
		c-0.9,1.1-1.9,2-3.1,2.6c1.3-0.5,2.5-1.3,3.4-2.3c0.1,0.9-0.1,1.7-0.5,2.5c0,0,1.4-0.7,0.9-3c0.5-0.6,0.9-1.3,1.3-2
		c0.5,1.2,0.7,2.5,0.7,3.8c0,0,1.1-1.6-0.4-4.3l0.8-2c0,0,1.3,2.9,1.2,4.3c0,0,0.8-1.8-1.1-4.8l0.5-2c0.7,1.2,1.2,2.6,1.6,4
		c0,0,0.4-1.9-1.4-4.6l0.2-1.4c0,0,0.9,1.8,1.2,2.3c0.2,0.5,0.4,0.5,0.4,0.5c-0.2-1.2-0.7-2.4-1.4-3.4
		C-6696.2,3269-6696.1,3268-6695.9,3267.1z"/>
	<path id="Path_417" class="st0" d="M-6735.9,3347.5c0,0-4.2,15.1-14,9.9c-1.1-0.2-2.1-1.1-2.2-2.2c0,0,0.8,0.2,1-1.4
		c0.1-0.6,0.3-1.1,0.5-1.6c0.3-0.7,0.8-1.3,1.5-1.7l0,0c0,0,3.2-3.6,10.6-2.9c0,0,1.9-0.7,2.3-0.5l-1.9,2.1
		c-0.9-0.8-2.1-1.3-3.3-1.3c0,0,3.2,1.2,3,1.6c-0.1,0.1-1.1,1.1-1.1,1.1s-2.6-2.5-5.3-2.2c0,0,4,0.9,5,2.6l-1.6,1.4
		c0,0-2.7-2.8-5.8-2.6c0,0,4.2,1.1,5.4,2.8l-1.8,1.2c0,0-2.6-2.7-5.2-2.5c0,0,4.7,1.7,4.8,2.7c-0.7,0.4-1.5,0.8-2.3,1
		c0,0-2-1.9-3.4-1.6c0,0,3,1.5,2.9,1.8c-1.3,0.3-2.7,0.5-4.1,0.3c1.4,0.4,2.8,0.4,4.2,0.1c-0.4,0.8-1.1,1.4-1.8,1.8
		c0,0,1.6,0.3,2.5-1.9c0.8-0.2,1.5-0.5,2.2-0.9c-0.3,1.3-0.9,2.4-1.7,3.5c0,0,1.8-0.7,2.1-3.8l1.8-1.1c0,0-0.6,3.1-1.5,4.2
		c0,0,1.7-1,1.9-4.5l1.6-1.4c-0.2,1.4-0.5,2.8-1,4.1c0,0,1.4-1.3,1.5-4.6l1-1c0,0-0.3,2-0.4,2.5c-0.1,0.6,0,0.7,0,0.7
		c0.6-1.1,0.9-2.4,0.8-3.6C-6737.3,3348.9-6736.6,3348.2-6735.9,3347.5z"/>
	<path id="Path_419" class="st1" d="M-6806.4,3513.1c0,0-34.3-11.5-27.2-52.3l43.6-11.3l10.1,33.4L-6806.4,3513.1z"/>
	<path id="Path_420" class="st2" d="M-6779.9,3483.1l-26.5,30.1c0,0-34.3-11.5-27.2-52.3L-6779.9,3483.1z"/>
	<path id="Path_423" class="st3" d="M-6809.8,3459l-23.8,1.9l-44.3,0.4l34.9,42.8c0,0,11.1,0.6,13.4,2.2c2.3,1.6,34.3,0.7,34.3,0.7
		l5.2-21.9L-6809.8,3459z"/>
	<path id="Path_424" class="st4" d="M-6809.8,3459l-23.8,1.9l-44.3,0.4l34.9,42.8c0,0,11.1,0.6,13.4,2.2c2.3,1.6,34.3,0.7,34.3,0.7
		l5.2-21.9L-6809.8,3459z"/>
	<path id="Path_425" class="st5" d="M-6785.7,3343.9l-5.5,9.4l-1.2,16.3c0,0-3.9,13.9-6.7,18c-2.9,4.1-4.1,14.9-4.1,14.9
		s-1.2,10.1-2.6,12.2s-3.4,17.8-3.4,17.8s-12.8,25.4-24.3,28.5c0,0,57.3,18.7,27.2,52.3c0,0,21.4,5.3,26.5-0.7s18.3-94.7,18.3-94.7
		l-4.1-74.8L-6785.7,3343.9z"/>
	<path id="Path_427" class="st3" d="M-6716.1,3252.8c1.6,8.3,1.1,16.9-1.4,25l8.9,25.4c0,0,67.9-37.6,62.1-46.7
		c-3.3-5.2-6.4-18.5-6.1-29.4c-2.8-9.2-2.8-26.6-2.8-26.6s-77.1,19.5-66,38.5C-6718.9,3243.2-6717.1,3247.9-6716.1,3252.8z"/>
	<path id="Path_428" class="st2" d="M-6715.7,3252c2.6,3.5-2.1,15.1,2.6,18.3s42.8-30.7,51.4-37.3
		C-6661.5,3225.3-6724.3,3234.3-6715.7,3252z"/>
	<path id="Path_430" class="st6" d="M-6777.2,3427.8c0.8,4.5-0.2,12.6-1.8,20.9c-0.1,0.4-0.1,0.7-0.2,1.1c-0.1,0.4-0.2,0.9-0.3,1.4
		c-0.7,3.6-1.5,7.1-2.3,10.3s-1.5,6-2.1,8.2c-0.9,3.4-1.5,5.5-1.5,5.5s-0.1,2.1-0.2,5.4c-0.1,1.9-0.1,4.3-0.2,6.9
		c0,0.8,0,1.5-0.1,2.3c0,1.4-0.1,2.8-0.1,4.3c0,0.5,0,0.9,0,1.4c0,1.6-0.1,3.2-0.1,4.8c0,2.2-0.1,4.4-0.1,6.5v8.2
		c0.1,5.1,0.3,9,0.7,10.1c0.2,0.4,0.3,0.8,0.4,1.2c0.6,2,1,4.1,1.2,6.2l1.1-0.9c2.1-1.8,4.3-3.6,6.4-5.3c3.6-3,7.4-5.7,11.4-8.2
		c0.3-0.2,0.5-0.3,0.8-0.5c0.7-0.4,1.5-0.8,2.3-1.2c1.6-0.8,3.2-1.5,4.9-2.1c7.7-2.8,15.9-4.1,24.1-3.8c3.3,1.3,5.5,2.2,5.5,2.2
		l4.2,1.3l0.7,0.2c4.6,1.4,11,3.3,13.3,4.2c3.7,1.3,36.1,8,36.1,8c3,0.8,6,1.4,9,1.6c5.6,1.6,11.2,2.7,16.9,3.5
		c13,1.7,26.2,0.6,38.8-3.1c0.4,0,0.8,0,1.1,0c-0.2,0-0.4,0-0.7-0.1l0.8-0.2l1.1-0.3c1.9-0.6,3.7-1.2,5.5-1.9l1.1-0.4
		c1.8-0.7,3.5-1.4,5.2-2.2l1.1-0.5c1.8-0.8,3.5-1.7,5.2-2.6c0.6-0.3,1.2-0.7,1.8-1c1.8-1,3.6-2,5.3-3.1c0.3-2.5,0.4-4.1,0.4-4.1
		l2.6-12.8l0.1-0.7l1.9-9.2l0.1-0.7l4-20.1l0.2-0.7l1.9-9.2l0.1-0.7l4.1-20l0.1-0.7l1.9-9.2l0.1-0.7l4-20.1l0.1-0.7l1.9-9.2l0.1-0.7
		l0.7-3.6l1.1-5.5c1.6-3.8,3.6-7.4,5.9-10.8c1.6-2.3,2-16.5,1.6-19.4c-0.1-5.1,0.1-16-2.4-19.5c-0.4-0.6-0.8-1.2-1.2-1.8
		c-0.2-0.2-0.3-0.4-0.5-0.7c-3-4.4-5.6-8.2-6.1-9.6c-0.8-2.1-6-8.5-11.1-14c-4-4.4-8.1-8.3-9.9-9.2c-4.1-2.2-5.8-9.1-5.8-9.1
		s-8.9-3.1-10.1-5.5c-1.2-2.4-18.1-13.2-18.1-13.2s-6.8-4.4-9.6-7c-0.4-0.3-0.7-0.7-1-1.2c-1-1.7-7.2-3.1-9.8-3.6
		c-0.7-0.1-1.1-0.2-1.1-0.2c-1-1.9-2.3-3.6-3.9-5c-1-0.9-2.3-4.1-3.4-7.1c-1.2-3.3-2.1-6.5-2.1-6.5c-1.9-6.5-5.8-4.6-5.8-4.6
		c0,0.9-0.1,1.8-0.3,2.6l0,0c-1.6,7.9-10.3,11.2-14.9,14.9c-5.1,4.1-13,14.6-19.3,16.8c-5.2,1.8-11.2,8.5-13.1,10.8l-0.1,0.2
		c-0.3,0.4-0.5,0.6-0.5,0.6s-3.6-0.2-5.7-0.2h-0.8c-0.4,0-0.9-0.2-1.2-0.5c-2.2-1.5-5.4-5.7-6.7-6.7c-1.7-1.2-3.4-20.6-3.4-20.6
		l-0.1,0c-6-2.8-12.4,25.2-12.4,25.2s-11.3,3.4-12.3,5.8c-0.6,0.9-1.4,1.7-2.3,2.3c-5.8,4.4-12.1,8.4-18.6,11.8
		c-0.1,0.1-0.3,0.1-0.4,0.2c-0.1,0.1-0.3,0.1-0.4,0.2c-0.2,0.1-0.5,0.2-0.7,0.3c-0.4,0.2-0.7,0.3-1,0.4l-0.4,0.1
		c-0.9,0.3-1.8,0.8-2.6,1.4c-0.2,0.2-0.5,0.3-0.7,0.5c-0.9,0.7-1.7,1.6-2.5,2.5c-0.1,0.1-0.2,0.3-0.3,0.4l0,0
		c-0.5,0.6-0.9,1.2-1.3,1.8c-0.6,0.9-1.2,1.8-1.7,2.8c0,0-9.9,16.8-13,18.7c-3.1,1.9-5.1,21.3-5.1,21.3l0,0l10.6,39.1
		c0,0,0.5,9.9,1.4,20C-6778.7,3417.9-6778,3423.7-6777.2,3427.8z"/>
	<path id="Path_431" class="st7" d="M-6697.5,3286.8c0,0,7.1,3.8,12.6,4.2c0.7,0,1.5,0,2.2-0.1c5.8-0.9,14.3-5.6,14.3-5.6l-10-10.9
		l-12.2,6l-4.5,4.1L-6697.5,3286.8z"/>
	<path id="Path_435" d="M-6645.4,3173.1L-6645.4,3173.1c0.1,0.2,0.1,0.5,0.1,0.7C-6645.4,3173.6-6645.6,3173.4-6645.4,3173.1z"/>
	<path id="Path_441" class="st2" d="M-6764,3517.7c0.7-0.4,1.5-0.8,2.3-1.2c1.6-0.8,3.2-1.5,4.9-2.1c7.7-2.8,15.9-4.1,24.1-3.8
		c3.3,1.3,5.5,2.2,5.5,2.2l4.2,1.3l0.7,0.2c0-0.5,0.1-0.9,0.1-1.4c0-0.5,0.1-0.9,0.2-1.4c1.5-14,2.6-28.3,2.6-28.3v-13.8l0.1-36.5
		l0.7-12l0.3-5.3l0.1-1l0.1-2.1l0.1-1.2c0.1-0.4,0.3-0.8,0.4-1.2l0,0c0-0.2,0.1-0.3,0.1-0.5c0.2-0.7,0.3-1.5,0.5-2.4
		c1.2-6.1,2.7-16.3,2.8-18.3c0.1-2.8,2.5-19.3,2.5-19.3c0.2-9.1,7.9-26.3,9.9-29.5s4.1-22.7,3.4-23.7c-0.4-0.6-0.6-3.9-0.8-6.9
		c0-0.3,0-0.7,0-1c-0.1-2.4-0.1-4.4-0.1-4.4l-7.6-1.5l-2-0.4l-0.2,0l-0.1,0.1c-0.2,0.4-0.9,1.7-1.7,3.4c-0.1,0.2-0.2,0.4-0.3,0.6
		c0,0.1-0.1,0.2-0.1,0.3c-1.5,3.2-3.2,7.5-3.1,9.9c0.1,4.3-4.8,14.7-4.8,14.7c-0.5,2.4-11,26.2-11,26.2s-8.6,23.4-8.1,27.2
		c0.5,3.8-4.1,29.2-4.1,29.2l-4.7,26.1c-2.3,5.1-5.3,17-5.3,17l-1.1,6.7l-0.2,1.3l-3,18l-1.5,8.8c0,0-0.6,4.7-1.6,9.9
		c-0.1,0.5-0.2,0.9-0.3,1.4c-0.6,3.4-1.4,6.8-2.5,10.1C-6763.2,3514.5-6763.7,3516.1-6764,3517.7L-6764,3517.7z"/>
	<path id="Path_442" class="st7" d="M-6764.8,3518.2c0.3-0.2,0.5-0.3,0.8-0.5c0.7-0.4,1.5-0.8,2.3-1.2c1.6-0.8,3.2-1.5,4.9-2.1
		c7.7-2.8,15.9-4.1,24.1-3.8c3.3,1.3,5.5,2.2,5.5,2.2l4.2,1.3c0.1-0.5,0.1-0.9,0.2-1.4c0.1-0.5,0.1-0.8,0.1-1.3
		c1.5-13.9,2.6-28.2,2.6-28.2v-13.9l0.1-36.4l0.7-11.5l0.1-2.4l0.1-1.6l0.1-2.1l0.1-2.2l0.1-1.6v-0.3c0,0,0-0.1,0-0.1
		c0.1-0.4,0.3-0.9,0.4-1.6l0.1-0.3c0-0.2,0.1-0.3,0.1-0.5c1.2-5.6,3.1-17.7,3.2-20c0.1-2.8,2.5-19.3,2.5-19.3
		c0.2-9.1,7.9-26.3,9.9-29.5c1.9-3.2,4.1-22.7,3.4-23.7c-0.4-0.7-0.7-4.7-0.8-8v-0.8c-0.1-2-0.1-3.6-0.1-3.6l-7-1.4l-1.8-0.3
		l-0.3-0.1l-0.7-0.1c0,0-0.9,1.6-1.9,3.8l-0.1,0.3c-1.5,3.3-3.3,7.7-3.3,10.2c0.1,4.3-4.8,14.7-4.8,14.7c-0.5,2.4-11,26.2-11,26.2
		s-8.6,23.4-8.1,27.2c0.5,3.8-4.1,29.2-4.1,29.2l-4.7,26.1c-2.3,5.1-5.3,17-5.3,17l-1.1,6.3l-0.2,1.3l-2.4,14.2l-2.2,13.1
		c0,0-0.7,4.7-1.6,9.9c-0.1,0.5-0.2,0.9-0.3,1.4c-0.6,3.4-1.4,6.8-2.5,10.2C-6764,3514.7-6764.4,3516.4-6764.8,3518.2
		L-6764.8,3518.2z"/>
	<path id="Path_449" class="st2" d="M-6677.1,3155l2.8,4.1l-10.6-0.4l-0.2-4.6L-6677.1,3155z"/>
	<path id="Path_450" class="st2" d="M-6741.7,3159.9l-1.2,3.7l-6.7,1.1l2.9-4.4L-6741.7,3159.9z"/>
	<path id="Path_451" class="st2" d="M-6625.9,3284.6c-0.7,1.2-24.4,32.3-30.7,31.4C-6662.8,3315.1-6625.9,3284.6-6625.9,3284.6z"/>
	<path id="Path_452" class="st2" d="M-6705.4,3313c0,0-5.8,5.5-4.9,7.7S-6705.4,3313-6705.4,3313z"/>
	<path id="Path_453" class="st2" d="M-6642.3,3350.8c0,0,5.1,23.6,2.4,24.4C-6642.5,3376-6642.3,3350.8-6642.3,3350.8z"/>
	<path id="Path_454" class="st2" d="M-6707.3,3442.5c-0.8,2.4-7.8,18-9.4,18.8C-6718.2,3462.2-6707.3,3442.5-6707.3,3442.5z"/>
	<path id="Path_455" class="st2" d="M-6788.5,3378.5c0.2,0.8,6.3,5.8,4.9,7.6C-6784.8,3387.9-6788.5,3378.5-6788.5,3378.5z"/>
	<path id="Path_456" class="st2" d="M-6741.7,3422.3c0.1,0.6,1.3,13.2-1,15.6S-6741.7,3422.3-6741.7,3422.3z"/>
	<path id="Path_457" class="st2" d="M-6803.4,3487.5c1.7,1,3.6,1.9,5.4,2.8c2,1,4,1.9,6,2.7c0.8,0.3,1.6,0.7,2.4,1
		c1.2,0.5,2.4,1,3.6,1.4c3.6,1.4,7.1,2.6,10.2,3.7c1.2,0.4,2.4,0.8,3.4,1.1c5.4,1.7,9,2.6,9,2.6c0.8-0.2,1.7-0.2,2.5-0.2h0.7
		c1.1,0.1,2.2,0.2,3.3,0.4c7.4,1.3,17.8,5,24.1,7.4c3.3,1.3,5.5,2.2,5.5,2.2l4.2,1.3l0.7,0.2c4.6,1.4,11,3.3,13.3,4.2
		c3.7,1.3,36.1,8,36.1,8c3,0.8,6,1.4,9,1.6c7.5,0.7,15.1,0.9,22.6,0.5c7.6,0.5,19.8-1.2,27-2.3l1.1-0.2c2.8-0.4,4.5-0.8,4.5-0.8
		l-0.9-1.3l-19-26.1l-0.1-0.2l-17.7-24.3l-0.7-0.9l-1.6-2.2c0,0-1-1.3-4.7-1.4h-1.4c-3.1,0.2-6.2,0.9-9.2,1.9l-0.9,0.3
		c-12.8,3.7-32.6,2.7-32.6,2.7s-12.3-2-22-3.2l-0.7-0.1c-3.2-0.4-6.4-0.7-9.5-0.8c-5.9,0.1-18.7-3-18.7-3c-2-0.3-3.8-1-5.5-2.2
		c-0.2-0.1-0.4-0.3-0.7-0.5c-0.7-0.5-1.4-1.1-2.4-1.8c-1.8-1.4-4.3-3.2-8.2-5.8c-0.3-0.2-0.7-0.4-1.1-0.7s-0.9-0.5-1.4-0.7
		c-3.8-1.8-7.8-3.1-12-4c-3.4-0.7-6.9-1.2-10.4-1.4h-0.5c-9.9-0.5-20.1,1.2-26,6.7c-1,1-1.9,2.1-2.7,3.3c-0.4,0.6-0.7,1.2-1,1.8
		c-0.5,1.2-0.9,2.4-1.2,3.7c0,0.2-0.1,0.5-0.1,0.7v0.2c0,0.2,0,0.4-0.1,0.6C-6822.1,3474.6-6813.8,3481.8-6803.4,3487.5z"/>
	<path id="Path_459" class="st2" d="M-6655.1,3467.7c0,0.5,0.2,1,0.4,1.4c2.5,6.2,17,22.9,17,22.9c0.7,2,1.5,3.9,2.4,5.8
		c2,4,4.3,7.9,6.8,11.6c3.8,5.5,8,10.7,12.5,15.7h0c0.6,0.4,1.2,0.8,1.8,1.2c1.8,1.2,3.9,1.9,6.1,2.2c0.4,0,0.8,0,1.1,0
		c-0.2,0-0.4,0-0.7-0.1l0.8-0.2l1.1-0.3c1.9-0.6,3.7-1.2,5.5-1.9l1.1-0.4c1.8-0.7,3.5-1.4,5.2-2.2l1.1-0.5c1.8-0.8,3.5-1.7,5.2-2.6
		c0.6-0.3,1.2-0.7,1.8-1c1.8-1,3.6-2,5.3-3.1c1.8-1.2,3.6-2.4,5.4-3.6c1.3-2.4,2.4-4.6,3-5.8c1.1-2.2,1.2-5.3,1-7.5
		c0-0.2,0-0.4,0-0.7c-0.1-1.4-0.3-2.4-0.3-2.4c1-1.3,1.9-2.7,2.6-4.1c0.4-0.7,0.7-1.5,0.7-2.4c0-0.3,0-0.7,0.1-1
		c0.5-2.1,2.7-5.7,4.7-7.9c1.5-1.7,1.6-7.8,1.5-12.2c-0.1-2.6-0.3-4.6-0.3-4.6c0.3-0.2,0.5-0.5,0.6-0.8c0.5-1.4,0.9-2.9,1.1-4.5
		c0-0.2,0-0.4,0.1-0.7c0.4-3,0.6-6.1,0.6-6.1c4.9-3.5,7.2-9.1,8.3-14l0.1-0.7c0.6-3,0.8-6.1,0.8-9.2v-0.8c0,0-0.6-14.3-2.5-19.8
		c-0.1-0.2-0.2-0.5-0.2-0.7c-0.1-0.3-0.3-0.7-0.5-1c-0.8-1.4-1.3-2.9-1.5-4.5c-0.3-1.4-0.5-2.9-0.7-4.4c-0.2-1.3-0.3-2.5-0.4-3.6
		c-0.3-3.1-0.3-5.5-0.3-5.5l1.2-6c0.3-1.6,0.6-3.3,0.8-4.9c0-0.2,0-0.4,0.1-0.7c0.3-3.1,0.4-6.1,0.2-9.2c0-0.2,0-0.4,0-0.7
		c-0.5-7-2.4-13.8-5.4-20.1l-0.3-0.7c-0.4-0.9-0.9-1.7-1.4-2.6c-0.4-0.6-0.7-1.2-1.1-1.9c-1-1.6-2.1-3.2-3.3-4.7
		c-0.2-0.2-0.4-0.4-0.5-0.7c-2.1-2.5-4.4-4.9-6.9-7c-6.7-5.7-12.8-8.2-18.4-8.4c-24.4-0.9-38,42-40.2,49.5c-0.2,0.7-0.3,1.1-0.3,1.1
		s-9.9,9.8-7,14.1c0.6,0.9,0.9,2,1,3.1c0.8,5.8-1.5,15.4-1.5,15.4s5.5,44.6,4.1,46.7c-0.9,1.6-1.6,3.2-2.1,4.9c-0.9,2.4-1.7,5-2.1,6
		c-0.1,0.3-0.1,0.4-0.1,0.4c-0.9-0.3-1.8-0.6-2.7-0.7c-1.2-0.2-2.4,0-2.6,1c-0.1,0.5-0.8,1.2-1.8,1.8
		C-6649.6,3465.2-6652.3,3466.6-6655.1,3467.7z"/>
	<path id="Path_460" class="st8" d="M-6653.7,3467.6c0,0.5,0.2,1,0.4,1.4c2.5,6.2,17,23,17,23c0.7,2,1.5,3.9,2.4,5.8
		c1.6,3.2,3.4,6.4,5.4,9.4c4.1,6.2,8.7,12.1,13.7,17.7l0.2,0.2c0,0,0.6,0.4,1.5,1c1.7,1.1,3.5,1.8,5.4,2.2l0.8-0.2l1.1-0.3
		c1.9-0.6,3.7-1.2,5.5-1.9l1.1-0.4c1.8-0.7,3.5-1.4,5.2-2.2l1.1-0.5c1.8-0.8,3.5-1.7,5.2-2.6c0.6-0.3,1.2-0.7,1.8-1
		c1.8-1,3.6-2,5.3-3.1c1.8-1.2,3.6-2.4,5.4-3.6c0.8-0.6,1.6-1.2,2.4-1.8c0.9-1.7,1.6-3.1,2.1-4c1.1-2.2,1.2-5.3,1-7.5
		c0-0.2,0-0.4,0-0.7c-0.1-1.4-0.3-2.4-0.3-2.4s0.5-0.7,1.2-1.7c0.4-0.5,0.8-1.2,1.1-1.8c0.6-0.9,1-1.9,1.1-3c0-0.1,0-0.2,0-0.3
		c0-0.2,0-0.4,0.1-0.7c0.5-2.1,2.7-5.7,4.7-7.9c1.5-1.7,1.6-7.8,1.5-12.2v-0.7c-0.1-2.3-0.2-3.9-0.2-3.9c0.7-0.3,1.3-2.7,1.7-5.3
		l0.1-0.7c0.4-3,0.6-6.1,0.6-6.1c4.9-3.5,3.2-7.3,4.3-12.3c0.8-3.5,1-12.3,1-12.3s3.3-14.5,1.5-20.1c-0.1-0.2-0.2-0.5-0.2-0.7
		c-0.2-0.3-0.4-0.7-0.6-1c-1-1.4-1.7-4.8-2.1-8.2l-0.1-0.7c-0.5-4.6-0.7-9.1-0.7-9.1l1.2-6c0.3-1.6,0.6-3.3,0.8-4.9
		c0-0.2,0.1-0.4,0.1-0.7c0.3-3.1,0.4-6.1,0.2-9.2c0-0.2,0-0.4,0-0.7c-0.5-7-2.3-13.8-5.4-20.1c-0.1-0.2-0.2-0.4-0.3-0.7
		c-0.9-1.7-1.8-3.4-2.8-5c-0.4-0.6-0.7-1.1-1.1-1.7c-0.6-0.9-1.2-1.7-1.9-2.6l-0.5-0.7c-2-2.5-4.3-4.9-6.8-7
		c-7.3-6.2-13.9-8.6-19.8-8.4c-23.5,0.8-36.6,42.2-38.8,49.5c-0.2,0.7-0.3,1.1-0.3,1.1s-9.9,9.8-7,14.1c0.6,0.9,0.9,2,1,3.1
		c0.8,5.8-1.5,15.4-1.5,15.4l1,39.3c0,0,4.6,5.3,3.1,7.4c-0.9,1.6-1.6,3.2-2.1,4.9c-1.1,3.1-2.2,6.4-2.2,6.4
		c-0.4-0.2-0.9-0.3-1.3-0.4c-0.9-0.3-1.9-0.4-2.9-0.3c-0.5,0-1,0.4-1.1,1c-0.2,0.8-1.5,1.8-3.2,2.7L-6653.7,3467.6z"/>
	<path id="Path_461" class="st2" d="M-6566.6,3404.3c-2.3-0.1-26.9-9.6-31.9-6.4c-5.1,3.2-36.4,24.2-36.4,24.2s19.6-25.5,36.7-31.5
		S-6566.6,3404.3-6566.6,3404.3z"/>
	<path id="Path_462" class="st2" d="M-6601.9,3442.9c0,0-24.6,4.9-28.3,8.3L-6601.9,3442.9z"/>
	<path id="Path_463" class="st2" d="M-6597.2,3479.5c0.4,0.4,9.3,20.3,8.5,20.3s-8.3-11.9-8.3-11.9L-6597.2,3479.5z"/>
	<path id="Path_464" class="st2" d="M-6614,3455.6c0,0,7.2,2.5,6.4,2.8S-6613.7,3456.7-6614,3455.6z"/>
	<path id="Path_465" class="st2" d="M-6606.7,3485.7c-1.2,2.5-5.1,10.1-5.9,8.9S-6606.7,3485.7-6606.7,3485.7z"/>
	<path id="Path_466" class="st2" d="M-6696.9,3286.3l1,1.5c0,0,8.2-5.7,11.6-8.6c3.4-2.9,11.3,10.3,17.6,13.9
		c6.3,3.6,16.9,4.6,16.9,4.6s8.2-8.2,7.9-10.5c-0.3-2.4,3.9-3.1,4.1-4.8c0.2-1.7,1.7-6.5,3.6-8.9c1-1.3,1.2-5.2,1.1-8.7
		c-0.7-0.1-1.1-0.2-1.1-0.2c-1-1.9-2.3-3.6-3.9-5c-2.2-1.9-5.5-13.7-5.5-13.7c-1.9-6.5-5.8-4.6-5.8-4.6c0,9.8-10.1,13.4-15.2,17.5
		c-5.1,4.1-13,14.6-19.3,16.8C-6689,3277.3-6695,3284.1-6696.9,3286.3z"/>
	<path id="Path_467" class="st5" d="M-6696.9,3284.9l1,1.5c0,0,8.2-5.7,11.6-8.6s11.3,10.3,17.6,13.9c6.3,3.6,16.9,4.6,16.9,4.6
		s8.2-8.2,7.9-10.5c-0.3-2.4,3.9-3.1,4.1-4.8c0.3-1.7,1.7-6.5,3.6-8.9c1-1.3,1.2-5.2,1.1-8.7l-1.1-0.2c-1-1.9-2.3-3.6-3.9-5
		c-2.2-1.9-5.5-13.7-5.5-13.7c-1.9-6.5-7.7-4.5-7.7-4.5c0,9.8-8.2,13.4-13.3,17.5c-5.1,4.1-13,14.6-19.3,16.8
		C-6689,3275.9-6695,3282.6-6696.9,3284.9z"/>
	<path id="Path_468" class="st2" d="M-6697.5,3286.8c0,0,7.1,3.8,12.6,4.2c0.7,0,1.5,0,2.2-0.1l0,0c0,0-6.1-4.6-11.8-5.5
		L-6697.5,3286.8z"/>
	<path id="Path_469" class="st2" d="M-6712,3306.4c0,0,9-3.5,11.9,1.8c-0.1-2.4-0.1-4.4-0.1-4.4l-9.8-1.9c0,0-0.9,1.7-2,4.1
		C-6712,3306.2-6712,3306.4-6712,3306.4z"/>
	<path id="Path_470" class="st9" d="M-6682.7,3290.9c0,0-10.7-6.4-15.9-5.9c-5.4,0.6-15.9,1-15.9,1s3.6,8.2,3.1,9.8
		s-0.6,9.8-0.6,9.8s10.8-4.2,12.6,3.6c0,0,5.9-8.8,9.9-11.4C-6686.8,3296-6684.5,3293.6-6682.7,3290.9z"/>
	<path id="Path_471" class="st2" d="M-6743.3,3298.4c3.1,0,14.2-7,16.6-11.5c2.4-4.5,5.8,0.5,8.9,2.2c2,1.1,9.9-1.2,14.1-2.8
		c-2.1-1.5-6.9-5.6-8.3-6.5c-1.7-1.2-3.4-20.6-3.4-20.6c-6-3.1-12.5,25.2-12.5,25.2s-11.3,3.4-12.3,5.7c-0.6,0.9-1.4,1.7-2.3,2.3
		C-6743.8,3295.6-6744.5,3298.4-6743.3,3298.4z"/>
	<path id="Path_472" class="st5" d="M-6743.3,3296.9c3.1,0,14.2-7,16.6-11.5c2.4-4.5,5.8,0.5,8.9,2.2c2,1.1,8.3-1,12.5-2.6
		c-2.1-1.4-5.4-5.7-6.7-6.7c-1.7-1.2-3.4-20.6-3.4-20.6c-6-3.1-12.5,25.2-12.5,25.2s-11.3,3.4-12.3,5.8c-0.6,0.9-1.4,1.7-2.3,2.3
		C-6743.8,3294.2-6744.5,3296.9-6743.3,3296.9z"/>
	<path id="Path_474" class="st3" d="M-6836.7,3496.2c0,0-22.9,32.6-48.3,2.3c-25.4-30.3-18.1-46.3-10.4-47.1
		C-6887.7,3450.6-6844.3,3483.8-6836.7,3496.2z"/>
	<path id="Path_527" class="st3" d="M-6744.3,3226.6c0,0-1.2,6.6,0.8,8.8c2,2.2,7.5-1.4,7.2,0.1c-0.2,1.5-2.5,6.5-1.7,9
		s5.9-0.4,6.1,1.2c0.2,1.6,2,18.1,12,11.9c0,0,4.3-0.8,19.1-7c14.7-6.2,39.8-17.8,39.8-17.8l-17.1-46.9c0,0,7-15.8-3.6-22.7
		c0,0-4.2-3.3-7.7,0.2c-2.9,2.7-6,5.3-9.2,7.6c-2,2-2.6,5-1.5,7.6l5.1,16.8c-0.2-0.9-9.6,8.5-9.8,7.7c-1.6-4.8-10.7-24.9-13.7-28
		l-20.9-1.1c-1.6-1.7,4.9-14.3,3-15.4c-8.1,6.1-20.4,5.7-28,10.5c-2.4,4.8,2.2,31.3,11.9,34.2c0,0-0.6,4.5-1.1,10
		c-0.4,5.6-0.7,12.3-0.7,12.3C-6752.2,3231.4-6744.3,3226.6-6744.3,3226.6z"/>
	<path id="Path_433" class="st10" d="M-6738.4,3160.4c0,0.5-2.7,14.7-2.4,15.1c1.2,1.5,20.6,3.6,22.5,3.6c1.7,0,13.9,27.9,15.5,27.5
		c1.4-0.4,7.7-8.7,8.8-7.7c0.4,0.4-6.7-21.7-4.8-21.8c2.8-0.2,8.7-13.9,20.7-8.1c5,3.8-1.2,16.2-1.2,16.2c0.1-0.3,8.5,31.5,8.4,31.3
		c0-0.1,17-15.3,17-15.4c0-0.1-8.2-27.3-8.3-27.4c-5-50.8-19.7-62.7-20.6-63.5c0,0-2-7.7-12.7,3.7c-3.6,3.9-17,14.4-21.2,21.1
		c0,0.1-9.9,11.3-9.9,11.3L-6738.4,3160.4z"/>
	<path id="Path_528" d="M-6781.2,3161.7c0,0-3.4,0.3-12.7-2c0,0,7.3,30.1,56.3,2.8c12.8-7.4,10.6-8.2,27.8-27.9
		c1.4-0.3-1.3,10.2-0.8,9.9c0,0,9.4-10.4,14.6-17.7c5.2-7.4,6.2-11.7,6.2-11.7c-2.3-1-7.5-12.9-9.4-14.4
		c-14.6,7.5-59.7,29.3-96.1,33.4C-6798.9,3141.4-6782.7,3162.1-6781.2,3161.7z"/>
	<path id="Path_533" class="st11" d="M-6932.9,3503.7l175.7,3.7l-23.9-72.4c-0.8-2.4-3-4-5.5-4.1l-112.9-2.1L-6932.9,3503.7z"/>
	<path id="Path_534" class="st12" d="M-6918.3,3487.3l21.1-46.3c0.9-2,2.9-3.3,5.1-3.3h52.3c3.1,0,5.6,2.5,5.6,5.6v50.1
		c0,3.1-2.5,5.6-5.6,5.6c-0.1,0-0.2,0-0.3,0l-73.4-3.7c-3.1-0.2-5.5-2.8-5.3-5.9C-6918.8,3488.6-6918.6,3487.9-6918.3,3487.3
		L-6918.3,3487.3z"/>
	<path id="Path_535" class="st12" d="M-7020,3309.5l61.3-7.8c1.8-0.2,3.4,0.7,4.2,2.3l55.2,124.8l-33.4,74.9l-90.3-188.6
		c-1-2-0.1-4.3,1.8-5.3C-7020.9,3309.6-7020.5,3309.5-7020,3309.5z"/>
	<path id="Path_536" class="st13" d="M-7004.7,3318.2l44.3-6.9c1.8-0.3,3.6,0.7,4.3,2.4l46.4,113.5c0.4,0.9,0.4,2-0.1,2.9
		l-21.2,44.4c-0.8,1.8-3,2.6-4.8,1.7c-0.8-0.4-1.4-1-1.7-1.7l-70.2-150.7c-0.9-2-0.1-4.3,1.9-5.3
		C-7005.5,3318.4-7005.1,3318.3-7004.7,3318.2L-7004.7,3318.2z"/>
	<path id="Path_537" class="st14" d="M-6930,3504l173.9,3.5c1.3,0,2.4-1,2.5-2.4c0-0.3,0-0.5-0.1-0.8l-27.1-73.1l-117.1-2.2
		l-34.7,70.9c-0.6,1.5,0,3.2,1.5,3.8C-6930.8,3503.9-6930.4,3504-6930,3504L-6930,3504z"/>
	<path id="Path_458" class="st3" d="M-6607.5,3525.4c0,0-21.3,4.7-32.5,4.4c0,0-20.5,1.8-31.7-1c0,0-32.6-5.6-36.4-6.8
		s-18.4-5-18.4-5s-28.6-10.7-36.4-8.6c0,0-22.4-9.4-18.7-31.3s3.5-10.7,16.2-2.9c12.7,7.7,10.1-3.4,16.3-2.3c0,0,12.9,2.7,18.8,2.3
		c5.9-0.3,32.4,2.9,32.4,2.9s20.7,0.2,33.3-4.2c12.6-4.4,15.3-1,15.3-1L-6607.5,3525.4z"/>
	<path id="Path_526" class="st3" d="M-6765.7,3462.5c-4.9-0.8-9.8-2-14.5-3.6c-3.4-1.3-6.6-3-9.9-4.4c-18.3-7.8-39.1-7.3-57,1.5
		c-3.2,1.6-6.8,4.4-6.1,8c0.7,3.8,5.6,4.9,9.5,5.2c-4.5,0.9-8.8,2.8-12.5,5.6c-1.4,1-2.7,2.3-2.9,4c-0.4,3.6,4.1,5.3,7.6,5.9
		c-1.4,0.9-1.2,3.3,0,4.4c1.4,1.1,3,1.6,4.7,1.6c3.7,0.2,7.5-0.1,11.2-1c-1.1,1.5-0.4,3.8,1,5.1c1.5,1.2,3.3,1.8,5.2,1.8
		c8.9,0.7,17.4-3.4,26.3-3.7c14.2-0.4,26.6,9,40.3,12.8c4.3,1.4,8.8,1.7,13.2,1.1c5.4-1,10.3-4.1,15.7-4.3c6.1-0.2,12.1,3.3,18,1.8
		c4.3-1.1,4.8-17.5,4.6-20.8c-0.4-5.9-1.2-10-7-12C-6732.8,3466.3-6750.5,3465.4-6765.7,3462.5z"/>
</g>
</svg>
