<svg xmlns="http://www.w3.org/2000/svg" xmlns:xlink="http://www.w3.org/1999/xlink" width="248" height="247" viewBox="0 0 248 247">
  <defs>
    <clipPath id="clip-path">
      <ellipse id="Ellipse_144" data-name="Ellipse 144" cx="124" cy="123.5" rx="124" ry="123.5" transform="translate(1092 3120)" fill="#fff" stroke="#707070" stroke-width="1"/>
    </clipPath>
  </defs>
  <g id="Mask_Group_3" data-name="Mask Group 3" transform="translate(-1092 -3120)" clip-path="url(#clip-path)">
    <g id="Group_75" data-name="Group 75" transform="translate(2288 1247)">
      <g id="Group_76" data-name="Group 76" transform="translate(18 0.388)">
        <rect id="Rectangle_149" data-name="Rectangle 149" width="480" height="291" transform="translate(-1323 1876.612)" fill="#f1f1f1"/>
        <g id="Group_74" data-name="Group 74" transform="translate(-1209.073 1882.965)">
          <g id="Group_73" data-name="Group 73" transform="translate(0)">
            <g id="Group_71" data-name="Group 71">
              <path id="Path_1052" data-name="Path 1052" d="M489.415,489.717c-36.491-15.465-69.5-14.877-100.6-5.438-47.913-8.368-80.721-7.073-101.767,5.438V450.875H489.415Z" transform="translate(-286.853 -353.284)" fill="#cbcbcb"/>
              <path id="Path_1053" data-name="Path 1053" d="M489.109,325.377c-33.619-15.233-67.2-16.216-101.281,0-34.911-10.052-68.659-9.947-101.281,0V207.3c34.684-10.352,68.422-10.1,101.281,0,34.71-10.068,68.5-10.387,101.281,0Z" transform="translate(-286.547 -199.625)" fill="#e5e5e5"/>
              <path id="Path_1054" data-name="Path 1054" d="M308.222,240.717l-1.131-2.895a125.331,125.331,0,0,1,26.577-6.356c14.37-1.931,35.78-2.392,56.171,6.376l-1.227,2.855c-19.709-8.475-40.486-8.028-54.445-6.162A124.821,124.821,0,0,0,308.222,240.717Z" transform="translate(-299.111 -218.392)" fill="#fff"/>
              <path id="Path_1055" data-name="Path 1055" d="M308.222,268.717l-1.131-2.895a125.333,125.333,0,0,1,26.577-6.356c14.37-1.931,35.78-2.392,56.171,6.376l-1.227,2.855c-19.709-8.475-40.486-8.029-54.445-6.162A124.824,124.824,0,0,0,308.222,268.717Z" transform="translate(-299.111 -235.516)" fill="#fff"/>
              <path id="Path_1056" data-name="Path 1056" d="M308.222,296.717l-1.131-2.895a125.334,125.334,0,0,1,26.577-6.356c14.37-1.931,35.78-2.392,56.171,6.376l-1.227,2.855c-19.709-8.475-40.486-8.029-54.445-6.162A124.822,124.822,0,0,0,308.222,296.717Z" transform="translate(-299.111 -252.64)" fill="#fff"/>
              <path id="Path_1057" data-name="Path 1057" d="M308.222,324.717l-1.131-2.895a125.336,125.336,0,0,1,26.577-6.356c14.37-1.931,35.78-2.393,56.171,6.376l-1.227,2.855c-19.709-8.475-40.486-8.029-54.445-6.162A124.828,124.828,0,0,0,308.222,324.717Z" transform="translate(-299.111 -269.765)" fill="#fff"/>
              <path id="Path_1058" data-name="Path 1058" d="M308.222,352.717l-1.131-2.895a125.325,125.325,0,0,1,26.577-6.356c14.37-1.931,35.78-2.392,56.171,6.376l-1.227,2.855c-19.709-8.475-40.486-8.029-54.445-6.162A124.818,124.818,0,0,0,308.222,352.717Z" transform="translate(-299.111 -286.889)" fill="#fff"/>
              <path id="Path_1059" data-name="Path 1059" d="M308.222,380.717l-1.131-2.894a125.325,125.325,0,0,1,26.577-6.356c14.37-1.931,35.78-2.392,56.171,6.376l-1.227,2.855c-19.709-8.475-40.486-8.028-54.445-6.162A124.829,124.829,0,0,0,308.222,380.717Z" transform="translate(-299.111 -304.013)" fill="#fff"/>
              <path id="Path_1060" data-name="Path 1060" d="M569.222,439.717l-1.131-2.895a125.335,125.335,0,0,1,26.577-6.356c14.37-1.931,35.78-2.392,56.171,6.376l-1.228,2.855c-19.709-8.475-40.486-8.028-54.445-6.162A124.822,124.822,0,0,0,569.222,439.717Z" transform="translate(-458.733 -340.096)" fill="#6c63ff"/>
              <path id="Path_1061" data-name="Path 1061" d="M568.547,298.108v-59.4l1.091-.341c27.633-8.632,55.133-8.63,81.735.005l1.074.349v59.309l-2.1-.794c-27.683-10.448-54.48-10.454-79.648-.018Zm41-11.828a117.392,117.392,0,0,1,39.789,7.273V240.983c-25.292-7.976-51.418-7.972-77.684.013v52.486a103.458,103.458,0,0,1,37.9-7.2Z" transform="translate(-459.012 -219.359)" fill="#fff"/>
              <path id="Path_1062" data-name="Path 1062" d="M776.713,389.33l.407-9.886,13.962-27.76a4.027,4.027,0,0,1,1.827-1.817,4.075,4.075,0,0,1,5.688,2.369,4.228,4.228,0,0,1,.177.791,4.036,4.036,0,0,1-.4,2.322l-13.981,27.8Z" transform="translate(-586.322 -291.248)" fill="#6c63ff"/>
              <path id="Path_1063" data-name="Path 1063" d="M797.205,349.94l-15.156,30.134-1.156-.581,14.659-29.145A3.864,3.864,0,0,1,797.205,349.94Z" transform="translate(-588.878 -291.554)" fill="#3f3d56"/>
              <path id="Path_1064" data-name="Path 1064" d="M808.241,356.114,793.662,385.1l-1.156-.581,15.125-30.071a3.873,3.873,0,0,1,.441.913A4,4,0,0,1,808.241,356.114Z" transform="translate(-595.981 -294.311)" fill="#3f3d56"/>
              <path id="Path_1065" data-name="Path 1065" d="M803.331,351.1l-15.324,30.467-1.155-.581,15.343-30.505a3.765,3.765,0,0,1,.477.2A3.967,3.967,0,0,1,803.331,351.1Z" transform="translate(-592.523 -291.888)" fill="#3f3d56"/>
              <path id="Path_1066" data-name="Path 1066" d="M778.8,444.662l-1.542,1.242.129-3.274A3.062,3.062,0,0,1,778.8,444.662Z" transform="translate(-586.654 -348.241)" fill="#3f3d56"/>
              <g id="Group_23" data-name="Group 23" transform="translate(193.882 54.708)">
                <path id="Path_385" data-name="Path 385" d="M890.737,478.567a3.226,3.226,0,1,1-5.6-3.2l.022-.038a3.484,3.484,0,0,1,.3-.431l-2.714-19.342-.081-.579-.551-3.947-.081-.569.3.014,5.258.24,1.41.064.177,3.6,1,20.243a3.222,3.222,0,0,1,.558,3.947Z" transform="translate(-844.616 -407.738)" fill="#ffb8b8"/>
                <path id="Path_386" data-name="Path 386" d="M878.23,430.2l6.676-.612a1.318,1.318,0,0,0,1.189-1.426l-1.237-13.883a5.062,5.062,0,1,0-10.084.9q.013.143.034.286l2,13.618a1.316,1.316,0,0,0,1.3,1.124.927.927,0,0,0,.12-.006Z" transform="translate(-840.163 -382.792)" fill="#cbcbcb"/>
                <path id="Path_387" data-name="Path 387" d="M861.374,414.767a9.3,9.3,0,0,0-3.42-10.7c-2.518-1.723-5.963-2.341-9.673,2.076a46.189,46.189,0,0,0-9.364,18.55l15.194,2.473S859.278,420.848,861.374,414.767Z" transform="translate(-818.246 -378.57)" fill="#cbcbcb"/>
                <path id="Path_388" data-name="Path 388" d="M823.4,663.523h-4.332l-2.061-16.709H823.4Z" transform="translate(-804.847 -527.824)" fill="#ffb8b8"/>
                <path id="Path_389" data-name="Path 389" d="M800.808,691.9h13.614v-5.26h-8.354a5.26,5.26,0,0,0-5.26,5.26Z" transform="translate(-794.939 -552.182)" fill="#2f2e41"/>
                <path id="Path_390" data-name="Path 390" d="M907.342,655.124l-4.113,1.36-7.2-15.218,6.07-2.007Z" transform="translate(-853.174 -523.204)" fill="#ffb8b8"/>
                <path id="Path_391" data-name="Path 391" d="M896.974,685.594l12.927-4.272-1.651-4.994-7.932,2.622A5.26,5.26,0,0,0,896.974,685.594Z" transform="translate(-853.589 -545.874)" fill="#2f2e41"/>
                <circle id="Ellipse_65" data-name="Ellipse 65" cx="8.678" cy="8.678" r="8.678" transform="translate(24.911 3.757)" fill="#ffb8b8"/>
                <path id="Path_392" data-name="Path 392" d="M814.946,542.544l4.023-26.552a1.237,1.237,0,0,1,2.425-.106l6.126,25.3a1.6,1.6,0,0,0,1.8,1.2l16.9-2.716a1.59,1.59,0,0,0,1.269-2.032L825.45,464.992a1.239,1.239,0,0,1-.022-.636l.734-3.18a1.584,1.584,0,0,0-.822-1.772c-3-1.531-10.6-4.714-16.335-1.227a1.608,1.608,0,0,0-.735,1.034l-17.213,80.9a1.59,1.59,0,0,0,1.413,1.915l20.761,1.859q.071.006.141.006a1.593,1.593,0,0,0,1.572-1.352Z" transform="translate(-788.955 -411.496)" fill="#2f2e41"/>
                <path id="Path_393" data-name="Path 393" d="M883.532,349.273a6.564,6.564,0,0,1-1.716-1.491,2.226,2.226,0,0,1-.343-2.155,2.262,2.262,0,0,1,2.751-.944,6.569,6.569,0,0,1,2.527,1.884,6.5,6.5,0,0,1,1.626,2.258,1.975,1.975,0,0,1-3.175,2.285,6.524,6.524,0,0,1-1.6-2.215Z" transform="translate(-844.188 -342.97)" fill="#2f2e41"/>
                <path id="Path_394" data-name="Path 394" d="M894.559,344.3c.048-2.445,2.835-4.2,5.242-3.765s4.257,2.486,5.183,4.749c1.957,4.782.488,10.239-1.4,15.052s-4.219,9.7-3.944,14.855a15.52,15.52,0,0,0,9.015,13.074c-2.716,1.231-5.964-.041-8.246-1.96a16.48,16.48,0,0,1-4.65-18.036c1.172-3.05,3.238-5.659,4.85-8.5s2.8-6.19,1.963-9.349-4.376-5.717-7.405-4.495Z" transform="translate(-852.275 -340.472)" fill="#2f2e41"/>
                <path id="Path_395" data-name="Path 395" d="M855.673,360.966c.756-1.278,1.519-2.957.137-4.074a2.849,2.849,0,0,0-2.138-.565,10.2,10.2,0,0,1-4.766-.3,4.468,4.468,0,0,1-2.592-2.329,4.6,4.6,0,0,1,1.825-5.256,6.148,6.148,0,0,1,6.8-.12,7.01,7.01,0,0,1,6.585.765,10.465,10.465,0,0,1,3.94,5.53,10.671,10.671,0,0,1,.326,5.871,8.725,8.725,0,0,1-5.412,5.964,3.142,3.142,0,0,1-3.1-.459,5.835,5.835,0,0,1-1.57-2.3A3.7,3.7,0,0,1,855.673,360.966Z" transform="translate(-822.604 -344.68)" fill="#2f2e41"/>
                <path id="Path_397" data-name="Path 397" d="M793.023,397.828a3.7,3.7,0,0,1,.084.579l15.178,8.756,3.689-2.124,3.933,5.149-6.166,4.395a2.827,2.827,0,0,1-3.392-.083L790.7,402.153a3.71,3.71,0,1,1,2.323-4.325Z" transform="translate(-785.699 -373.798)" fill="#ffb8b8"/>
                <path id="Path_398" data-name="Path 398" d="M844.634,416.046l4.906,6.358a1.59,1.59,0,0,0,2.4.132l5.553-5.767a4.417,4.417,0,0,0-5.274-7.086q-.072.054-.142.11l-6.965,3.895a1.59,1.59,0,0,0-.482,2.359Z" transform="translate(-821.539 -382.265)" fill="#cbcbcb"/>
              </g>
              <rect id="Rectangle_148" data-name="Rectangle 148" width="0.777" height="117.707" transform="translate(100.893 7.671)" fill="#cbcbcb"/>
            </g>
            <g id="Group_72" data-name="Group 72" transform="translate(47.789 57.129)">
              <path id="Path_2559" data-name="Path 2559" d="M842.612,789.7h3.359l1.6-12.9h-4.958Z" transform="translate(-831.918 -648.048)" fill="#feb8b8"/>
              <path id="Path_2560" data-name="Path 2560" d="M824.3,824.413H835.13v-.136a4.208,4.208,0,0,0-4.216-4.2H824.3Z" transform="translate(-814.46 -679.521)" fill="#2f2e41"/>
              <path id="Path_2561" data-name="Path 2561" d="M759.068,787.061l3.246-.864-1.8-12.878-4.79,1.276Z" transform="translate(-722.851 -645.522)" fill="#feb8b8"/>
              <path id="Path_2562" data-name="Path 2562" d="M730.451,819.887l10.465-2.787-.035-.132A4.218,4.218,0,0,0,735.718,814h0l-6.392,1.7Z" transform="translate(-694.22 -674.995)" fill="#2f2e41"/>
              <path id="Path_2563" data-name="Path 2563" d="M751.047,559.068l-2.814,3.256,3.639,66.161h7.774l3.919-50.909,12.153,52.274,8.082-1.974-7.348-66.4Z" transform="translate(-742.286 -489.739)" fill="#2f2e41"/>
              <path id="Path_2564" data-name="Path 2564" d="M800.155,392.238l-7.74-3.867-11.9.208-10.243,5.22,5.828,28.986L773.579,437.9h0a62.33,62.33,0,0,0,29.688.243l.078-.019s-5.786-20.444-3.323-26.683Z" transform="translate(-767.868 -365.625)" fill="#9a0202"/>
              <path id="Path_2565" data-name="Path 2565" d="M799.633,322.758a8.731,8.731,0,1,1,0,.065Z" transform="translate(-789.739 -311.592)" fill="#feb8b8"/>
              <path id="Path_2567" data-name="Path 2567" d="M797.98,468.513a3.146,3.146,0,0,1-4.563,1.536L777.7,478.323l-.509-3.813,15.272-8.968a3.156,3.156,0,0,1,5.517,2.972Z" transform="translate(-764.625 -420.766)" fill="#feb8b8"/>
              <path id="Path_2568" data-name="Path 2568" d="M774.907,469.3a3.149,3.149,0,0,0,4.79.5l17.155,4.649-.149-4.841L779.637,465.2a3.168,3.168,0,0,0-4.195-.042,3.136,3.136,0,0,0-.536,4.143Z" transform="translate(-762.496 -420.894)" fill="#feb8b8"/>
              <path id="Path_2569" data-name="Path 2569" d="M831.15,408.474l-3.345-.209s-3.916,5.145-1.744,10.729c0,0-.376,20.058,8.3,19.234s11.414-.824,11.414-.824l-2.6-7.232-5.824-1.791s1.795-7.885-1.6-11.166Z" transform="translate(-825.405 -380.09)" fill="#8e0b0b"/>
              <path id="Path_2570" data-name="Path 2570" d="M752.089,401.955l.473-2.413s6.971-.164,8.35,10.357c0,0,6.269,15.744.125,17.771s-12.9,0-12.9,0l.509-6.943,6.761-1.373s-3.493-4.5-1.591-8.4Z" transform="translate(-722.193 -373.747)" fill="#8e0b0b"/>
              <path id="Path_2387" data-name="Path 2387" d="M805,320.471a10.874,10.874,0,0,1,2.04-.363,5.178,5.178,0,0,0,4.085-5.379,2.95,2.95,0,0,1-.016-.964,1.833,1.833,0,0,1,1.67-1.161,15.129,15.129,0,0,0,2.161-.163,3.216,3.216,0,0,0,2.16-2.348,5.3,5.3,0,0,0-.347-3.265l-.336.7a2.7,2.7,0,0,1-.687-1.324,1.715,1.715,0,0,0-1.416.893c-.433.193-.38-.793-.812-.988a.814.814,0,0,0-.576.075,4.561,4.561,0,0,1-2.9-.5,11.12,11.12,0,0,0-5.108-.581,6.18,6.18,0,0,0-3.2,1.206,7.264,7.264,0,0,0-1.687,2.258,13.959,13.959,0,0,0-1.907,6.634,9.6,9.6,0,0,0,1.689,5.327c.562.815,2.379,3.641,3.586,3.33C804.918,323.463,803.186,321.18,805,320.471Z" transform="translate(-789.376 -305.018)" fill="#2f2e41"/>
            </g>
          </g>
        </g>
      </g>
    </g>
  </g>
</svg>
