<svg xmlns="http://www.w3.org/2000/svg" xmlns:xlink="http://www.w3.org/1999/xlink" width="248" height="247" viewBox="0 0 248 247">
  <defs>
    <clipPath id="clip-path">
      <ellipse id="Ellipse_143" data-name="Ellipse 143" cx="124" cy="123.5" rx="124" ry="123.5" transform="translate(631 3118)" fill="none"/>
    </clipPath>
  </defs>
  <g id="Mask_Group_2" data-name="Mask Group 2" transform="translate(-631 -3118)" clip-path="url(#clip-path)">
    <g id="Group_67" data-name="Group 67" transform="translate(577.786 3098.923)">
      <rect id="Rectangle_146" data-name="Rectangle 146" width="299.206" height="267.081" transform="translate(0)" fill="#f1f1f1"/>
      <g id="Group_66" data-name="Group 66" transform="translate(35.501 31.721)">
        <path id="Path_986" data-name="Path 986" d="M409.125,202.025,241.966,273.539a4.687,4.687,0,0,1-6.145-2.463L191.725,168a3.433,3.433,0,0,1,1.8-4.5L362.935,91.023a3.493,3.493,0,0,1,4.58,1.835l44.073,103.021A4.687,4.687,0,0,1,409.125,202.025Z" transform="translate(-190.579 -88.327)" fill="#f2f2f2"/>
        <path id="Path_987" data-name="Path 987" d="M425.939,226.47,270.152,293.12a4.373,4.373,0,0,1-5.8-2.106l-38.4-89.759a3.242,3.242,0,0,1,1.838-4.189L385.671,129.52a3.3,3.3,0,0,1,4.371,1.589l38.38,89.712A4.373,4.373,0,0,1,425.939,226.47Z" transform="translate(-215.122 -115.895)" fill="#fff"/>
        <path id="Path_988" data-name="Path 988" d="M365.464,87.269,189.7,162.466l-.937-2.191a4.7,4.7,0,0,1,2.473-6.165l167.128-71.5a4.7,4.7,0,0,1,6.166,2.469Z" transform="translate(-188.382 -82.23)" fill="#6c63ff"/>
        <path id="Path_992" data-name="Path 992" d="M456.934,501.828l-20.776,8.888a4.687,4.687,0,0,1-6.145-2.463l-11.469-26.808a4.687,4.687,0,0,1,2.463-6.145l20.776-8.888a4.687,4.687,0,0,1,6.145,2.463L459.4,495.682a4.687,4.687,0,0,1-2.463,6.145Z" transform="translate(-352.975 -357.143)" fill="#f2f2f2"/>
        <g id="Group_65" data-name="Group 65" transform="translate(17.815 28.091)">
          <path id="Path_1046" data-name="Path 1046" d="M158.611,6.1H5.373C2.4,6.1,0,4.732,0,3.045S2.4-.007,5.373-.007H158.611c2.97,0,5.377,1.367,5.377,3.053S161.581,6.1,158.611,6.1Z" transform="translate(0 58.978) rotate(-21)" fill="#ccc"/>
          <path id="Path_1047" data-name="Path 1047" d="M93.973,6.1H3.182A3.121,3.121,0,0,1,0,3.048,3.121,3.121,0,0,1,3.182,0H93.973a3.121,3.121,0,0,1,3.186,3.053A3.121,3.121,0,0,1,93.973,6.1Z" transform="translate(4.353 69.648) rotate(-21)" fill="#ccc"/>
          <path id="Path_1048" data-name="Path 1048" d="M158.611,6.1H5.373C2.4,6.1,0,4.732,0,3.045S2.4-.007,5.373-.007H158.611c2.97,0,5.377,1.367,5.377,3.053S161.581,6.1,158.611,6.1Z" transform="translate(10.028 81.283) rotate(-21)" fill="#ccc"/>
          <path id="Path_1049" data-name="Path 1049" d="M126.284,6.1H4.277C1.913,6.1,0,4.733,0,3.047S1.913-.006,4.277-.006H126.284c2.364,0,4.281,1.367,4.281,3.053S128.648,6.1,126.284,6.1Z" transform="translate(15.134 96.563) rotate(-21)" fill="#ccc"/>
          <path id="Path_1050" data-name="Path 1050" d="M158.611,6.1H5.373C2.4,6.1,0,4.732,0,3.045S2.4-.007,5.373-.007H158.611c2.97,0,5.377,1.367,5.377,3.053S161.581,6.1,158.611,6.1Z" transform="translate(21.329 110.507) rotate(-21)" fill="#ccc"/>
        </g>
        <path id="Path_993" data-name="Path 993" d="M580.843,448.817l-20.776,8.888a4.687,4.687,0,0,1-6.145-2.463l-11.469-26.808a4.687,4.687,0,0,1,2.463-6.145l20.776-8.888a4.687,4.687,0,0,1,6.145,2.463l11.469,26.808A4.687,4.687,0,0,1,580.843,448.817Z" transform="translate(-441.729 -319.173)" fill="#f2f2f2"/>
        <path id="Path_994" data-name="Path 994" d="M704.751,395.808,683.975,404.7a4.687,4.687,0,0,1-6.145-2.463l-11.469-26.808a4.687,4.687,0,0,1,2.463-6.145l20.776-8.888a4.687,4.687,0,0,1,6.145,2.463l11.469,26.808A4.687,4.687,0,0,1,704.751,395.808Z" transform="translate(-530.483 -281.203)" fill="#f2f2f2"/>
        <path id="Path_995" data-name="Path 995" d="M524.276,514.25H342.462a4.687,4.687,0,0,1-4.681-4.681V397.457a3.433,3.433,0,0,1,3.43-3.43H525.468a3.493,3.493,0,0,1,3.489,3.489V509.569A4.687,4.687,0,0,1,524.276,514.25Z" transform="translate(-295.395 -305.566)" fill="#e6e6e6"/>
        <path id="Path_996" data-name="Path 996" d="M535.227,531.913H365.782a4.374,4.374,0,0,1-4.5-4.218V430.066a3.242,3.242,0,0,1,3.338-3.128H536.339a3.3,3.3,0,0,1,3.393,3.18v97.577A4.374,4.374,0,0,1,535.227,531.913Z" transform="translate(-312.225 -329.139)" fill="#fff"/>
        <path id="Path_998" data-name="Path 998" d="M454.389,533.147a31.208,31.208,0,1,1-31.208-31.209,31.209,31.209,0,0,1,31.208,31.209Z" transform="translate(-334.211 -382.86)" fill="#fff"/>
        <path id="Path_999" data-name="Path 999" d="M476.142,592.969c-.341,19.96-30.03,19.957-30.368,0C446.115,573.01,475.8,573.013,476.142,592.969Z" transform="translate(-372.749 -437.343)" fill="#6c63ff"/>
        <path id="Path_1000" data-name="Path 1000" d="M497.129,628.209l-.016-.568c3.911.522,4.753-4.325.809-2.513l.9-6.579.562.077-.766,5.6C502.772,623.6,501.236,628.776,497.129,628.209Z" transform="translate(-409.523 -466.387)" fill="#2f2e41"/>
        <rect id="Rectangle_142" data-name="Rectangle 142" width="3.056" height="0.567" transform="translate(92.642 152.722)" fill="#2f2e41"/>
        <rect id="Rectangle_143" data-name="Rectangle 143" width="3.056" height="0.567" transform="translate(82.996 152.722)" fill="#2f2e41"/>
        <path id="Path_1001" data-name="Path 1001" d="M480.083,697.245c.6-4.02-4.111-3.226-6.6-3.266a2.7,2.7,0,0,0-2.633,3.263,14.763,14.763,0,0,0-5.246,2.894,31.343,31.343,0,0,0,19.982.221A14.687,14.687,0,0,0,480.083,697.245Z" transform="translate(-386.952 -520.388)" fill="#2f2e41"/>
        <path id="Path_1002" data-name="Path 1002" d="M448.54,557.12c2.814-1.626,6.226-.379,9.133.3,5.515,1.7,13.248-.428,13.919-7,.7-6.11-7.66-9.515-10.331-3.434l.778-.1C453.375,534.014,438.3,534.5,438.4,552.2c-.032.547.819.545.851,0-.319-10.431,6.584-17.562,16.343-10.858a28.75,28.75,0,0,1,5.706,5.974c1.016,1.139,1.237-3.766,6.1-2.481,5.353,2.074,3.607,9.74-1.178,11.422-5.912,3.02-12.315-2.836-18.117.123a.426.426,0,0,0,.43.735Z" transform="translate(-367.469 -408.674)" fill="#2f2e41"/>
        <path id="Path_1003" data-name="Path 1003" d="M421.164,563.185a32.033,32.033,0,1,1,9.926-1.568,32.033,32.033,0,0,1-9.926,1.568Zm0-62.418a30.362,30.362,0,1,0,30.357,30.359,30.363,30.363,0,0,0-30.357-30.359Z" transform="translate(-332.195 -380.838)" fill="#3f3d56"/>
        <path id="Path_997" data-name="Path 997" d="M528.726,390.3H337.55v-2.383a4.7,4.7,0,0,1,4.7-4.7h181.78a4.7,4.7,0,0,1,4.7,4.7Z" transform="translate(-295.229 -297.826)" fill="#6c63ff"/>
        <path id="Path_1039" data-name="Path 1039" d="M389.166,338.176a3.96,3.96,0,0,0-1.9,3.379v.583h.466v-.583a3.5,3.5,0,0,1,2.6-3.379Zm57.215-.583h-55.15a3.966,3.966,0,0,0-3.961,3.961v81.324a3.967,3.967,0,0,0,3.961,3.961h61.283a3.967,3.967,0,0,0,3.961-3.961V346.606Zm9.628,85.285a3.5,3.5,0,0,1-3.5,3.5H391.231a3.5,3.5,0,0,1-3.5-3.5V341.554a3.5,3.5,0,0,1,2.6-3.379,3.454,3.454,0,0,1,.9-.116H446.2l9.805,8.755Zm-66.843-84.7a3.96,3.96,0,0,0-1.9,3.379v.582h.466v-.582a3.5,3.5,0,0,1,2.6-3.379Z" transform="translate(-244.432 -230.195)" fill="#3f3d56"/>
        <path id="Path_1040" data-name="Path 1040" d="M649.523,346.914h-6.291a3.966,3.966,0,0,1-3.961-3.961v-5.126a.233.233,0,0,1,.466,0v5.126a3.5,3.5,0,0,0,3.5,3.5h6.291a.233.233,0,1,1,0,.466Z" transform="translate(-437.713 -230.195)" fill="#3f3d56"/>
        <path id="Path_1041" data-name="Path 1041" d="M468.8,431.821H415.676a1.864,1.864,0,0,1,0-3.728H468.8a1.864,1.864,0,1,1,0,3.728Z" transform="translate(-264.79 -299.607)" fill="#ccc"/>
        <path id="Path_1042" data-name="Path 1042" d="M442.007,397.821H415.676a1.864,1.864,0,0,1,0-3.728h26.331a1.864,1.864,0,1,1,0,3.728Z" transform="translate(-264.79 -273.53)" fill="#ccc"/>
        <path id="Path_1043" data-name="Path 1043" d="M468.8,498.821H415.676a1.864,1.864,0,0,1,0-3.728H468.8a1.864,1.864,0,1,1,0,3.728Z" transform="translate(-264.79 -350.994)" fill="#ccc"/>
        <path id="Path_1044" data-name="Path 1044" d="M442.007,464.821H415.676a1.864,1.864,0,0,1,0-3.728h26.331a1.864,1.864,0,1,1,0,3.728Z" transform="translate(-264.79 -324.917)" fill="#ccc"/>
        <path id="Path_1045" data-name="Path 1045" d="M466.473,574.856h-49.4a3.849,3.849,0,0,1-3.845-3.845V551.438a3.849,3.849,0,0,1,3.845-3.845h49.4a3.849,3.849,0,0,1,3.845,3.845v19.574a3.849,3.849,0,0,1-3.845,3.845Z" transform="translate(-264.343 -391.261)" fill="#6c63ff"/>
      </g>
    </g>
  </g>
</svg>
