<svg xmlns="http://www.w3.org/2000/svg" xmlns:xlink="http://www.w3.org/1999/xlink" width="248" height="247" viewBox="0 0 248 247">
  <defs>
    <clipPath id="clip-path">
      <ellipse id="Ellipse_145" data-name="Ellipse 145" cx="124" cy="123.5" rx="124" ry="123.5" transform="translate(197 3118)" fill="none"/>
    </clipPath>
  </defs>
  <g id="Mask_Group_1" data-name="Mask Group 1" transform="translate(-197 -3118)" clip-path="url(#clip-path)">
    <g id="Group_61" data-name="Group 61" transform="translate(198.664 3114.121)">
      <rect id="Rectangle_136" data-name="Rectangle 136" width="244.678" height="127.385" transform="translate(0)" fill="#f0f0f0"/>
      <rect id="Rectangle_138" data-name="Rectangle 138" width="244.678" height="127.385" transform="translate(0 125.549)" fill="#f0f0f0"/>
      <g id="Group_59" data-name="Group 59" transform="translate(0 137.76)">
        <g id="Group_57" data-name="Group 57" transform="translate(0 0)">
          <g id="Group_56" data-name="Group 56">
            <g id="Group_54" data-name="Group 54">
              <path id="Path_953" data-name="Path 953" d="M572.461,260.177v-1.249H524.832v-22.6H523.56v22.6H475.931v-22.6H474.66v22.6H427.031v-22.6h-1.271v22.6H378.13v-22.6h-1.271v22.6H327.783v1.249h49.076v24.962H327.783v1.249h49.076V311.35H327.783V312.6h49.076v24.957H327.783v1.249h49.076v24.912h1.271V338.806h47.629v24.912h1.271V338.806H474.66v24.912h1.271V338.806H523.56v24.912h1.271V338.806h47.629v-1.249H524.832V312.6h47.629V311.35H524.832V286.388h47.629v-1.249H524.832V260.177Zm-146.7,77.38H378.13V312.6h47.629Zm0-26.207H378.13V286.388h47.629Zm0-26.211H378.13V260.177h47.629Zm48.9,52.418H427.031V312.6H474.66Zm0-26.207H427.031V286.388H474.66Zm0-26.211H427.031V260.177H474.66Zm48.9,52.418H475.931V312.6H523.56Zm0-26.207H475.931V286.388H523.56Zm0-26.211H475.931V260.177H523.56Z" transform="translate(-327.783 -236.333)" fill="#fff"/>
              <rect id="Rectangle_107" data-name="Rectangle 107" width="16.085" height="15.572" transform="translate(58.508 33.095)" fill="#cacaca"/>
              <rect id="Rectangle_135" data-name="Rectangle 135" width="16.085" height="15.572" transform="translate(109.885 31.926)" fill="#cacaca"/>
              <rect id="Rectangle_126" data-name="Rectangle 126" width="16.085" height="15.572" transform="translate(166.226 32.803)" fill="#cacaca"/>
              <rect id="Rectangle_128" data-name="Rectangle 128" width="16.085" height="15.572" transform="translate(212.885 33.095)" fill="#cacaca"/>
              <rect id="Rectangle_130" data-name="Rectangle 130" width="16.085" height="15.572" transform="translate(11.874 85.683)" fill="#cacaca"/>
              <rect id="Rectangle_108" data-name="Rectangle 108" width="16.085" height="15.572" transform="translate(211.119 80.338)" fill="#cacaca"/>
              <rect id="Rectangle_109" data-name="Rectangle 109" width="16.085" height="15.572" transform="translate(64.988 106.231)" fill="#cacaca"/>
              <rect id="Rectangle_110" data-name="Rectangle 110" width="16.085" height="15.572" transform="translate(68.443 30.205)" fill="#6c63ff"/>
              <rect id="Rectangle_134" data-name="Rectangle 134" width="16.085" height="15.572" transform="translate(119.821 29.037)" fill="#6c63ff"/>
              <rect id="Rectangle_125" data-name="Rectangle 125" width="16.085" height="15.572" transform="translate(176.161 29.914)" fill="#6c63ff"/>
              <rect id="Rectangle_127" data-name="Rectangle 127" width="16.085" height="15.572" transform="translate(222.636 30.205)" fill="#6c63ff"/>
              <rect id="Rectangle_129" data-name="Rectangle 129" width="16.085" height="15.572" transform="translate(21.625 82.794)" fill="#6c63ff"/>
              <rect id="Rectangle_111" data-name="Rectangle 111" width="16.085" height="15.572" transform="translate(176.289 58.824)" fill="#6c63ff"/>
              <rect id="Rectangle_121" data-name="Rectangle 121" width="16.085" height="15.572" transform="translate(212.885 5.757)" fill="#cacaca"/>
              <rect id="Rectangle_123" data-name="Rectangle 123" width="16.085" height="15.572" transform="translate(6.998 33.37)" fill="#cacaca"/>
              <rect id="Rectangle_122" data-name="Rectangle 122" width="16.085" height="15.572" transform="translate(222.636 2.868)" fill="#6c63ff"/>
              <rect id="Rectangle_124" data-name="Rectangle 124" width="16.085" height="15.572" transform="translate(16.749 30.481)" fill="#6c63ff"/>
            </g>
            <path id="Path_2429" data-name="Path 2429" d="M483.565,572.157a7.59,7.59,0,1,1-15.167,0c0-.1,0-.2.006-.3a7.59,7.59,0,1,1,15.163.3Z" transform="translate(-451.995 -560.54)" fill="#6c63ff"/>
            <path id="Path_2429-2" data-name="Path 2429" d="M483.565,572.157a7.59,7.59,0,1,1-15.167,0c0-.1,0-.2.006-.3a7.59,7.59,0,1,1,15.163.3Z" transform="translate(-400.313 -560.54)" fill="#6c63ff"/>
            <path id="Path_2429-3" data-name="Path 2429" d="M483.565,572.157a7.59,7.59,0,1,1-15.167,0c0-.1,0-.2.006-.3a7.59,7.59,0,1,1,15.163.3Z" transform="translate(-400.313 -507.391)" fill="#6c63ff"/>
            <path id="Path_2429-4" data-name="Path 2429" d="M483.565,572.157a7.59,7.59,0,1,1-15.167,0c0-.1,0-.2.006-.3a7.59,7.59,0,1,1,15.163.3Z" transform="translate(-400.313 -483.769)" fill="#6c63ff"/>
            <path id="Path_2429-5" data-name="Path 2429" d="M483.565,572.157a7.59,7.59,0,1,1-15.167,0c0-.1,0-.2.006-.3a7.59,7.59,0,1,1,15.163.3Z" transform="translate(-353.644 -560.28)" fill="#6c63ff"/>
            <path id="Path_2429-6" data-name="Path 2429" d="M483.565,572.157a7.59,7.59,0,1,1-15.167,0c0-.1,0-.2.006-.3a7.59,7.59,0,1,1,15.163.3Z" transform="translate(-294.866 -560.54)" fill="#6c63ff"/>
            <path id="Path_2431" data-name="Path 2431" d="M482.6,592.417l-2.184-2.912.517-.388,1.78,2.373,7.006-5.731.409.5Z" transform="translate(-461.281 -577.284)" fill="#fff"/>
            <path id="Path_2431-2" data-name="Path 2431" d="M482.6,592.417l-2.184-2.912.517-.388,1.78,2.373,7.006-5.731.409.5Z" transform="translate(-409.578 -577.284)" fill="#fff"/>
            <path id="Path_2431-3" data-name="Path 2431" d="M482.6,592.417l-2.184-2.912.517-.388,1.78,2.373,7.006-5.731.409.5Z" transform="translate(-409.578 -524.135)" fill="#fff"/>
            <path id="Path_2431-4" data-name="Path 2431" d="M482.6,592.417l-2.184-2.912.517-.388,1.78,2.373,7.006-5.731.409.5Z" transform="translate(-409.578 -500.513)" fill="#fff"/>
            <path id="Path_2431-5" data-name="Path 2431" d="M482.6,592.417l-2.184-2.912.517-.388,1.78,2.373,7.006-5.731.409.5Z" transform="translate(-362.93 -577.024)" fill="#fff"/>
            <path id="Path_2431-6" data-name="Path 2431" d="M482.6,592.417l-2.184-2.912.517-.388,1.78,2.373,7.006-5.731.409.5Z" transform="translate(-304.177 -577.284)" fill="#fff"/>
          </g>
        </g>
      </g>
      <g id="Group_58" data-name="Group 58" transform="translate(0 7.214)">
        <g id="Group_57-2" data-name="Group 57" transform="translate(0 0)">
          <g id="Group_56-2" data-name="Group 56">
            <g id="Group_54-2" data-name="Group 54">
              <path id="Path_953-2" data-name="Path 953" d="M572.461,260.177v-1.249H524.832v-22.6H523.56v22.6H475.931v-22.6H474.66v22.6H427.031v-22.6h-1.271v22.6H378.13v-22.6h-1.271v22.6H327.783v1.249h49.076v24.962H327.783v1.249h49.076V311.35H327.783V312.6h49.076v24.957H327.783v1.249h49.076v24.912h1.271V338.806h47.629v24.912h1.271V338.806H474.66v24.912h1.271V338.806H523.56v24.912h1.271V338.806h47.629v-1.249H524.832V312.6h47.629V311.35H524.832V286.388h47.629v-1.249H524.832V260.177Zm-146.7,77.38H378.13V312.6h47.629Zm0-26.207H378.13V286.388h47.629Zm0-26.211H378.13V260.177h47.629Zm48.9,52.418H427.031V312.6H474.66Zm0-26.207H427.031V286.388H474.66Zm0-26.211H427.031V260.177H474.66Zm48.9,52.418H475.931V312.6H523.56Zm0-26.207H475.931V286.388H523.56Zm0-26.211H475.931V260.177H523.56Z" transform="translate(-327.783 -236.333)" fill="#fff"/>
              <rect id="Rectangle_107-2" data-name="Rectangle 107" width="16.085" height="15.572" transform="translate(58.508 33.095)" fill="#cacaca"/>
              <rect id="Rectangle_135-2" data-name="Rectangle 135" width="16.085" height="15.572" transform="translate(109.885 31.926)" fill="#cacaca"/>
              <rect id="Rectangle_126-2" data-name="Rectangle 126" width="16.085" height="15.572" transform="translate(166.226 32.803)" fill="#cacaca"/>
              <rect id="Rectangle_128-2" data-name="Rectangle 128" width="16.085" height="15.572" transform="translate(212.885 33.095)" fill="#cacaca"/>
              <rect id="Rectangle_130-2" data-name="Rectangle 130" width="16.085" height="15.572" transform="translate(11.874 85.683)" fill="#cacaca"/>
              <rect id="Rectangle_108-2" data-name="Rectangle 108" width="16.085" height="15.572" transform="translate(211.119 80.338)" fill="#cacaca"/>
              <rect id="Rectangle_109-2" data-name="Rectangle 109" width="16.085" height="15.572" transform="translate(64.988 106.231)" fill="#cacaca"/>
              <rect id="Rectangle_110-2" data-name="Rectangle 110" width="16.085" height="15.572" transform="translate(68.443 30.205)" fill="#6c63ff"/>
              <rect id="Rectangle_134-2" data-name="Rectangle 134" width="16.085" height="15.572" transform="translate(119.821 29.037)" fill="#6c63ff"/>
              <rect id="Rectangle_125-2" data-name="Rectangle 125" width="16.085" height="15.572" transform="translate(176.161 29.914)" fill="#6c63ff"/>
              <rect id="Rectangle_127-2" data-name="Rectangle 127" width="16.085" height="15.572" transform="translate(222.636 30.205)" fill="#6c63ff"/>
              <rect id="Rectangle_129-2" data-name="Rectangle 129" width="16.085" height="15.572" transform="translate(21.625 82.794)" fill="#6c63ff"/>
              <rect id="Rectangle_111-2" data-name="Rectangle 111" width="16.085" height="15.572" transform="translate(176.289 58.824)" fill="#6c63ff"/>
              <rect id="Rectangle_121-2" data-name="Rectangle 121" width="16.085" height="15.572" transform="translate(212.885 5.757)" fill="#cacaca"/>
              <rect id="Rectangle_123-2" data-name="Rectangle 123" width="16.085" height="15.572" transform="translate(6.998 33.37)" fill="#cacaca"/>
              <rect id="Rectangle_122-2" data-name="Rectangle 122" width="16.085" height="15.572" transform="translate(222.636 2.868)" fill="#6c63ff"/>
              <rect id="Rectangle_124-2" data-name="Rectangle 124" width="16.085" height="15.572" transform="translate(16.749 30.481)" fill="#6c63ff"/>
            </g>
            <path id="Path_2429-7" data-name="Path 2429" d="M483.565,572.157a7.59,7.59,0,1,1-15.167,0c0-.1,0-.2.006-.3a7.59,7.59,0,1,1,15.163.3Z" transform="translate(-451.995 -560.54)" fill="#6c63ff"/>
            <path id="Path_2429-8" data-name="Path 2429" d="M483.565,572.157a7.59,7.59,0,1,1-15.167,0c0-.1,0-.2.006-.3a7.59,7.59,0,1,1,15.163.3Z" transform="translate(-400.313 -560.54)" fill="#6c63ff"/>
            <path id="Path_2429-9" data-name="Path 2429" d="M483.565,572.157a7.59,7.59,0,1,1-15.167,0c0-.1,0-.2.006-.3a7.59,7.59,0,1,1,15.163.3Z" transform="translate(-400.313 -507.391)" fill="#6c63ff"/>
            <path id="Path_2429-10" data-name="Path 2429" d="M483.565,572.157a7.59,7.59,0,1,1-15.167,0c0-.1,0-.2.006-.3a7.59,7.59,0,1,1,15.163.3Z" transform="translate(-400.313 -483.769)" fill="#6c63ff"/>
            <path id="Path_2429-11" data-name="Path 2429" d="M483.565,572.157a7.59,7.59,0,1,1-15.167,0c0-.1,0-.2.006-.3a7.59,7.59,0,1,1,15.163.3Z" transform="translate(-353.644 -560.28)" fill="#6c63ff"/>
            <path id="Path_2429-12" data-name="Path 2429" d="M483.565,572.157a7.59,7.59,0,1,1-15.167,0c0-.1,0-.2.006-.3a7.59,7.59,0,1,1,15.163.3Z" transform="translate(-294.866 -560.54)" fill="#6c63ff"/>
            <path id="Path_2431-7" data-name="Path 2431" d="M482.6,592.417l-2.184-2.912.517-.388,1.78,2.373,7.006-5.731.409.5Z" transform="translate(-461.281 -577.284)" fill="#fff"/>
            <path id="Path_2431-8" data-name="Path 2431" d="M482.6,592.417l-2.184-2.912.517-.388,1.78,2.373,7.006-5.731.409.5Z" transform="translate(-409.578 -577.284)" fill="#fff"/>
            <path id="Path_2431-9" data-name="Path 2431" d="M482.6,592.417l-2.184-2.912.517-.388,1.78,2.373,7.006-5.731.409.5Z" transform="translate(-409.578 -524.135)" fill="#fff"/>
            <path id="Path_2431-10" data-name="Path 2431" d="M482.6,592.417l-2.184-2.912.517-.388,1.78,2.373,7.006-5.731.409.5Z" transform="translate(-409.578 -500.513)" fill="#fff"/>
            <path id="Path_2431-11" data-name="Path 2431" d="M482.6,592.417l-2.184-2.912.517-.388,1.78,2.373,7.006-5.731.409.5Z" transform="translate(-362.93 -577.024)" fill="#fff"/>
            <path id="Path_2431-12" data-name="Path 2431" d="M482.6,592.417l-2.184-2.912.517-.388,1.78,2.373,7.006-5.731.409.5Z" transform="translate(-304.177 -577.284)" fill="#fff"/>
          </g>
        </g>
      </g>
      <g id="Group_60" data-name="Group 60" transform="translate(92.604 57.091)">
        <path id="Path_973" data-name="Path 973" d="M370.13,249.645l19.088-17.006,5.631,2.79-22.893,24.012Z" transform="translate(-306.782 -191.695)" fill="#ffb6b6"/>
        <circle id="Ellipse_146" data-name="Ellipse 146" cx="4.543" cy="4.543" r="4.543" transform="translate(80.405 37.704)" fill="#ffb6b6"/>
        <path id="Path_974" data-name="Path 974" d="M322.792,530.927h-4.517l-2.149-17.421h6.666Z" transform="translate(-277.311 -344.974)" fill="#ffb6b6"/>
        <path id="Path_975" data-name="Path 975" d="M626.223,722.709H611.659v-.184a5.669,5.669,0,0,1,5.668-5.668h8.9Z" transform="translate(-579.59 -532.378)" fill="#2f2e41"/>
        <path id="Path_976" data-name="Path 976" d="M286.792,530.927h-4.517l-2.149-17.421h6.666Z" transform="translate(-257.664 -344.974)" fill="#ffb6b6"/>
        <path id="Path_977" data-name="Path 977" d="M590.223,722.709H575.659v-.184a5.669,5.669,0,0,1,5.668-5.668h8.9Z" transform="translate(-559.943 -532.378)" fill="#2f2e41"/>
        <path id="Path_978" data-name="Path 978" d="M606.6,500.878s11.357-.909,7.722,19.079-11.162,74.663-11.162,74.663l-6.825.938L592.3,522.623l-3.05,72.937-8.68-.938-8.5-78.3s-2.729-6.3,0-10.643S606.6,500.878,606.6,500.878Z" transform="translate(-557.326 -414.508)" fill="#2f2e41"/>
        <path id="Path_979" data-name="Path 979" d="M633.533,389.844l3.153-1.689s7.768-.663,10.939,8.463l8.408,12.7,13.628-11.811,5.905,4.088-17.175,20.5-7.142.912L635.8,403.018Z" transform="translate(-591.527 -352.988)" fill="#673e66"/>
        <path id="Path_980" data-name="Path 980" d="M588.427,310.753c-12.955,0-16.581,14.231-16.581,22.259s7.423,6.814,16.581,6.814a90.258,90.258,0,0,0,10.381-.158l1.367-3.337,1.1,2.765c2.333-.857,3.733-2.6,3.733-6.084C605.007,324.984,601.828,310.753,588.427,310.753Z" transform="translate(-557.862 -310.753)" fill="#2f2e41"/>
        <circle id="Ellipse_147" data-name="Ellipse 147" cx="11.157" cy="11.157" r="11.157" transform="translate(19.352 6.745)" fill="#ffb6b6"/>
        <path id="Path_981" data-name="Path 981" d="M579.846,333.564h4.413l1.947-5.451.389,5.451H588.7l1.136-3.18.227,3.18h15.672a11.811,11.811,0,0,0-11.811-11.811h-2.271a11.811,11.811,0,0,0-11.811,11.811Z" transform="translate(-562.228 -316.756)" fill="#2f2e41"/>
        <path id="Path_982" data-name="Path 982" d="M607.2,431.215c-1.713.022-6.873-30.595-6.873-30.595l-.772-16.5-5.638-.189v-.371a2.808,2.808,0,0,0-2.808-2.808H580.371a2.806,2.806,0,0,0-2.8,2.629l-4.421-.149-7.657,24.328s7.056,22.6,3.65,32.566c0,0,33.179,2.849,39.53-3.475C608.675,436.653,608.913,431.193,607.2,431.215Z" transform="translate(-554.396 -348.954)" fill="#951d81"/>
        <path id="Path_983" data-name="Path 983" d="M561.719,388.91l-1.9-3.031s-6.183-1.529-8.728,2.568-10.027,26.3-10.027,26.3l7.722,2.726,8.763-12.286Z" transform="translate(-541.063 -351.599)" fill="#673e66"/>
        <rect id="Rectangle_137" data-name="Rectangle 137" width="16.085" height="15.572" transform="translate(23.89 53.182)" fill="#6c63ff"/>
        <path id="Path_984" data-name="Path 984" d="M559.141,439.5l-5.6-.592h0a5.49,5.49,0,0,0,3.9,7.714l22.142,4.419-2.31-7.113Z" transform="translate(-547.591 -380.694)" fill="#ffb6b6"/>
        <circle id="Ellipse_148" data-name="Ellipse 148" cx="4.543" cy="4.543" r="4.543" transform="translate(27.516 61.348)" fill="#ffb6b6"/>
        <path id="Path_985" data-name="Path 985" d="M571.719,449l-16.869-3.855a7.288,7.288,0,0,1-5.284-4.834l-.682-2.1,4.378-3.445,20.057,5.606Z" transform="translate(-545.331 -378.432)" fill="#673e66"/>
      </g>
    </g>
  </g>
</svg>
