<?xml version="1.0" encoding="utf-8"?>
<!-- Generator: Adobe Illustrator 24.2.1, SVG Export Plug-In . SVG Version: 6.00 Build 0)  -->
<svg version="1.1" id="Layer_1" xmlns="http://www.w3.org/2000/svg" xmlns:xlink="http://www.w3.org/1999/xlink" x="0px" y="0px"
	 viewBox="0 0 639 400.9" style="enable-background:new 0 0 639 400.9;" xml:space="preserve">
<style type="text/css">
	.st0{fill:#D9D9D9;}
	.st1{fill:#CCCCCC;}
	.st2{fill:#D2CDCD;}
	.st3{fill:#C6C0C0;}
	.st4{fill:#D8D4D4;}
	.st5{fill:#E4E4E4;}
	.st6{fill:#FFB6B6;}
	.st7{fill:#2F2E41;}
	.st8{fill:#6C63FF;}
	.st9{fill:#9F616A;}
	.st10{fill:#A0616A;}
	.st11{fill:#3F3D56;}
	.st12{fill:#F1CF74;}
	.st13{fill:#FFFFFF;}
	.st14{fill:#EFD1D1;}
</style>
<g id="Group_47" transform="translate(-874 -2280.652)">
	<path id="Path_790" class="st0" d="M939.2,2300.8v268.6c0,11,10.5,19.9,23.5,19.9h527.6c6.1,0.1,12-2,16.7-5.9
		c4.3-3.5,6.7-8.7,6.7-14.3l-1-268.9c-0.2-10.8-10.6-19.4-23.4-19.4H962.7C949.7,2280.8,939.2,2289.7,939.2,2300.8z"/>
	<g id="Group_46" transform="translate(874 2347.527)">
		<g id="Group_45" transform="translate(0 0)">
			<rect id="Rectangle_76" x="422.9" y="0.2" class="st1" width="92.2" height="69.1"/>
			<path id="Path_733" class="st2" d="M496.6,101h-54.8c-1.4,0-2.6-1.4-2.6-3.2s1.2-3.2,2.6-3.2h54.8c1.4,0,2.6,1.4,2.6,3.2
				S498.1,101,496.6,101z"/>
			<path id="Path_734" class="st3" d="M487.8,90h-37.2c-1.4,0-2.6-1.4-2.6-3.2s1.2-3.2,2.6-3.2h37.2c1.4,0,2.6,1.4,2.6,3.2
				S489.2,90,487.8,90z"/>
			<rect id="Rectangle_77" x="422.9" y="125.9" class="st4" width="92.2" height="69.1"/>
			<path id="Path_735" class="st5" d="M496.6,226.7h-54.8c-1.4,0-2.6-1.4-2.6-3.2s1.2-3.2,2.6-3.2h54.8c1.4,0,2.6,1.4,2.6,3.2
				S498.1,226.7,496.6,226.7L496.6,226.7z"/>
			<path id="Path_736" class="st5" d="M487.8,215.7h-37.2c-1.4,0-2.6-1.4-2.6-3.2s1.2-3.2,2.6-3.2h37.2c1.4,0,2.6,1.4,2.6,3.2
				S489.2,215.7,487.8,215.7z"/>
			<path id="Path_737" class="st1" d="M375.6,48.6H97.4c-1.4,0-2.6-1.4-2.6-3.2s1.2-3.2,2.6-3.2h278.2c1.4,0,2.6,1.4,2.6,3.2
				S377,48.6,375.6,48.6z"/>
			<path id="Path_738" class="st1" d="M375.6,73.1H97.4c-1.4,0-2.6-1.4-2.6-3.2s1.2-3.2,2.6-3.2h278.2c1.4,0,2.6,1.4,2.6,3.2
				S377,73.1,375.6,73.1z"/>
			<path id="Path_739" class="st1" d="M375.6,97.6H97.4c-1.4,0-2.6-1.4-2.6-3.2s1.2-3.2,2.6-3.2h278.2c1.4,0,2.6,1.4,2.6,3.2
				S377,97.6,375.6,97.6z"/>
			<path id="Path_740" class="st1" d="M375.6,122.1H97.4c-1.4,0-2.6-1.4-2.6-3.2s1.2-3.2,2.6-3.2h278.2c1.4,0,2.6,1.4,2.6,3.2
				S377,122.1,375.6,122.1z"/>
			<path id="Path_741" class="st1" d="M375.6,171H97.4c-1.4,0-2.6-1.4-2.6-3.2s1.2-3.2,2.6-3.2h278.2c1.4,0,2.6,1.4,2.6,3.2
				S377,171,375.6,171z"/>
			<path id="Path_742" class="st1" d="M375.6,195.5H97.4c-1.4,0-2.6-1.4-2.6-3.2s1.2-3.2,2.6-3.2h278.2c1.4,0,2.6,1.4,2.6,3.2
				S377,195.5,375.6,195.5z"/>
			<path id="Path_743" class="st1" d="M329.6,24.1H143.3c-1.4,0-2.6-1.4-2.6-3.2s1.2-3.2,2.6-3.2h186.3c1.4,0,2.6,1.4,2.6,3.2
				S331.1,24.1,329.6,24.1z"/>
			<path id="Path_744" class="st6" d="M401,327.6h5.4l2.6-25.9H401L401,327.6z"/>
			<path id="Path_745" class="st7" d="M399.6,325.4h10.6c3.7,0,6.8,3.8,6.8,8.4v0.3h-17.3V325.4z"/>
			<path id="Path_746" class="st6" d="M373.5,327.6h5.4l2.6-25.9h-7.9L373.5,327.6z"/>
			<path id="Path_747" class="st7" d="M372.2,325.4h10.6c3.7,0,6.8,3.8,6.8,8.4v0.3h-17.3V325.4z"/>
			<path id="Path_749" class="st6" d="M372.2,118.7l-12.1-2.4l-2.9,27.4l-15.7,42.3c-2.9,2.2-3.7,6.9-2,10.5s5.6,4.7,8.4,2.4
				s3.7-6.9,2-10.5l16.4-37.1L372.2,118.7z"/>
			<path id="Path_750" class="st7" d="M378.9,164.4c0,0-10.7,12.3-9.3,43.3l3,47.9l-0.8,66.7l10.9-1.1l9.6-111.8l9.2,45.8l-3.3,61.1
				l10.5,0.3l11.1-69l-2.6-51.2l-4.4-32H378.9z"/>
			<path id="Path_751" class="st8" d="M390.3,92.2l-25.5,8.9l12.9,48.5l-1.9,18.6l39.3,0.3l-9.1-35.9c0,0,5.1-13.1-0.7-22.3
				L390.3,92.2z"/>
			<path id="Path_752" class="st8" d="M387.2,99.9l3.1-7.6c0,0-0.1-1.9,7.1-2.9l8.4-10.5l7.7,9.6l-13,24.1L387.2,99.9z"/>
			<path id="Path_753" class="st8" d="M375,107.5c0,0-9.2-12.7-14.3-6.4s-2.5,26.6-2.5,26.6l15.9,3.1L375,107.5z"/>
			<path id="Ellipse_358" class="st6" d="M379.7,58.5c15.6,0.1,15.6,29.8,0,29.9C364.1,88.3,364.1,58.6,379.7,58.5z"/>
			<path id="Path_754" class="st7" d="M381.4,72.5c2.1,1.6,4.3,3.1,6.7,3.5c2.7,0.4,5.3-1.2,6.2-3.8c0.3-1,0.5-2,0.5-3.1
				c0.3-5.2-1.2-10.3-4.1-14.5c-2.9-3.9-7-6.1-11.3-6c-4,0.2-7.8,2.6-11.3,4.9c-3.3,2.1-6.8,4.5-8.6,8.6c-2.6,6-0.7,13.4-0.2,20.3
				c0.8,10-1.8,20-7.4,28.4l22.2,2.6c2.7,0.3,5.5,0.6,8.1-0.1c4.7-1.3,8.4-5.7,9.7-11.4c1.3-5.6,0-11.5-3.5-16
				c-3.2-3.8-8.2-6.5-8.3-12"/>
			<path id="Path_755" class="st9" d="M546.9,327H541l-2.8-28.4h8.7L546.9,327z"/>
			<path id="Path_756" class="st7" d="M548.4,334.2h-19v-0.3c0-5.1,3.3-9.2,7.4-9.2h11.6L548.4,334.2z"/>
			<path id="Path_757" class="st9" d="M601.7,327h-5.9l-2.8-28.4h8.7L601.7,327z"/>
			<path id="Path_758" class="st7" d="M603.2,334.2h-19v-0.3c0-5.1,3.3-9.2,7.4-9.2h11.6L603.2,334.2z"/>
			<path id="Path_759" class="st7" d="M544.5,182.8c0,0-4.9,16.8-4.2,23.9s-4.9,56.5-4.2,61s-0.7,26.5,0,30s-2,7.8-0.6,11.3
				s3.4,10.8,3.4,10.8l9.2-0.9l1.4-9.7c0,0,4.2-0.9,3.5-6.2s3.5-40.6,3.5-40.6l12-49.5l17,45.1c0,0,0.7,31.8,2.8,35.3
				s-2.1,13.3,0,16.8c1.7,3.1,3.1,6.4,4.2,9.7h10.6v-7.1c0,0,6.4-4.4,0-17.7l-4.3-79.6l-4.2-36.2L544.5,182.8z"/>
			<ellipse id="Ellipse_122" class="st10" cx="570.9" cy="55.2" rx="13.2" ry="16.5"/>
			<path id="Path_760" class="st7" d="M559.7,54.1l2.8,8.9c1.1,3.7,2.5,7.6,5.1,9.6c3.3,2.5,7.7,1.3,10.9-1.4c5.9-5,8.7-14.1,7-22.8
				s-7.6-15.1-14.7-16.1l-0.1,3l-2.9-3.1c-0.4,0.9-1.1,1.5-2.1,1.7c-0.9,0.1-1.8-0.2-2.4-1c0.8,2-0.1,4.4-1.4,6
				c-1.6,1.9-6.1,4.1-5.9,7.5C556.2,48.7,558.9,51.7,559.7,54.1z"/>
			<path id="Path_761" class="st9" d="M607.2,207.2c0.9-1.8,1.2-3.9,0.7-5.8c-0.4-1.9-1.5-3.5-3.1-4.4l0.3-16l-7.7-2.6l-0.1,22.6
				c-1,3.3,0.2,7.1,2.8,8.7S605.6,210.2,607.2,207.2L607.2,207.2z"/>
			<path id="Path_762" class="st11" d="M580.7,81.9c0,0-10.2-6.4-19.9-2.1S546,89,546,89l6.2,41.2l-8.5,55.4c0,0,43.7-4.3,47.7,0
				s4-5,4-5l-3.4-52.6l6.2-33.4L580.7,81.9z"/>
			<path id="Path_763" class="st9" d="M537.5,208.1c2.7-3.1,2.7-7.6,0-10.7l3.8-15.2l-6.8-5.2l-5.2,21.6c-1.7,3-1.4,6.6,0.7,9.3
				c1.6,2.1,4.6,2.5,6.7,0.9C537.1,208.6,537.3,208.4,537.5,208.1L537.5,208.1z"/>
			<path id="Path_764" class="st11" d="M550,89h-4c0,0-6.2,5-6.2,12.1s-9.1,90.2-9.1,90.2l9.7,2.1l8.5-58.3l6.2-15.6L550,89z"/>
			<path id="Path_765" class="st11" d="M587.5,94.7h10.8c0,0,3.4,4.3,5.1,14.2s3.4,49,3.4,49l-1.1,35.5h-8.5l-1.1-46.2l-5.7-29.8
				L587.5,94.7z"/>
			<path id="Path_766" class="st9" d="M87.2,142c-0.3,0.2-0.5,0.4-0.8,0.6l-25.3-12.4l-1-8.1l-10,0.3l0.7,14.6c0,2.2,1.3,4.2,3.4,5
				l30.1,8.7c0.8,2.8,2.8,4.8,5.2,4.9s4.6-1.6,5.5-4.4c0.9-2.7,0.5-5.7-1.3-8C92.2,141.2,89.4,140.7,87.2,142L87.2,142z"/>
			<path id="Path_767" class="st9" d="M49.3,326H56l3.2-32.4h-9.9L49.3,326z"/>
			<path id="Path_768" class="st7" d="M47.6,323.3h13.2c4.6,0,8.4,4.7,8.4,10.5v0.3H47.6V323.3z"/>
			<path id="Path_769" class="st9" d="M17,326h6.7l3.2-32.4H17L17,326z"/>
			<path id="Path_770" class="st7" d="M15.3,323.3h13.2c4.6,0,8.4,4.7,8.4,10.5v0.3H15.3V323.3z"/>
			<path id="Path_771" class="st7" d="M20.9,79.4c-1.9-9.9-3.5-21,0.1-30.1c2.5-6.3,11.7-8.4,17-6.2s9.1,8.4,10.8,15.1
				s1.5,14,0.8,20.9C39.8,79,30.1,78.7,20.9,79.4z"/>
			<ellipse id="Ellipse_123" class="st9" cx="37.3" cy="65.1" rx="11.4" ry="14.2"/>
			<path id="Path_772" class="st7" d="M23.4,62.2c-0.1-6.5,2.6-12.6,7.2-15.8c4.3-3.2,10.3-3.1,14.5,0.2c4.4,3.4,7.1,9.5,6.8,16.1
				C42.3,62.7,32.5,62.7,23.4,62.2z"/>
			<path id="Path_773" class="st7" d="M27.9,131.8l-4.8,9.9c0,0-13,30.5-12.2,55.9l2.9,31.5l-3.2,7.7l2.1,13.6l-3.9,9.8l7.1,47.1
				l0.3,10.2h11.5l-0.6-10.4l4.8-45.9l8.2-49l4.2,42.3l-1.5,10.6l2,8.9l2.7,27.4l0.3,13.2l10.4,1.5l3.9-49l2.3-23.4L52.3,140.2
				L27.9,131.8z"/>
			<path id="Path_774" class="st12" d="M26.4,84l-7.1,3.8l-4,20.6l8.4,26.8l-3.1,13.4c9.5,20.3,21.2,23.2,35,10.2
				c-2.9-10.3-2.5-20.8,0.4-31.5c4.3-5.6,5.2-13.1,2.2-19.4l-4.8-16.4l-6-3.7L26.4,84z"/>
			<path id="Path_775" class="st12" d="M51.9,94.9l1.6-3.7c0,0,4.2,0.8,6,7.2s2.2,32.1,2.2,32.1l-9.1,0.6L51.9,94.9z"/>
			<path id="Path_776" class="st8" d="M273.3,94.6L3.9,181.4c-1.4,0.4-2.8-0.6-3.1-2.3c-0.4-1.6,0.4-3.3,1.9-3.9L272,88.3
				c1.4-0.4,2.8,0.6,3.1,2.3C275.6,92.2,274.8,93.9,273.3,94.6L273.3,94.6z"/>
			<path id="Path_777" class="st9" d="M16.4,182.3c1.7-1.1,2.8-2.9,3.1-4.9c0.4-2.1,0.1-4.2-1-6.1l4.4-53.7h-9.5l-3.5,52.5
				c-2.3,2.7-2.8,6.6-1.1,9.7C10.5,183,13.8,184,16.4,182.3L16.4,182.3z"/>
			<path id="Path_778" class="st12" d="M25.1,93.8l-3.3-5.9c0,0-5.9-5-8.8,6.5s-2.5,32.6-2.5,32.6l11.4,5.9L25.1,93.8z"/>
			<rect id="Rectangle_78" x="422.9" y="0.2" class="st1" width="92.2" height="69.1"/>
			<path id="Path_779" class="st13" d="M454.8,12.2h-24.3c-0.2,0-0.3-1.4-0.3-3.2s0.2-3.2,0.3-3.2h24.3c0.2,0,0.3,1.4,0.3,3.2
				S455,12.2,454.8,12.2z"/>
			<path id="Path_780" class="st13" d="M454.8,23.2h-24.3c-0.2,0-0.3-1.4-0.3-3.2s0.2-3.2,0.3-3.2h24.3c0.2,0,0.3,1.4,0.3,3.2
				S455,23.2,454.8,23.2z"/>
			<path id="Path_781" class="st13" d="M454.8,35.9h-24.3c-0.2,0-0.3-1.4-0.3-3.2c0-1.8,0.2-3.2,0.3-3.2h24.3c0.2,0,0.3,1.4,0.3,3.2
				C455.1,34.4,455,35.9,454.8,35.9z"/>
			<path id="Path_782" class="st13" d="M454.8,46.9h-24.3c-0.2,0-0.3-1.4-0.3-3.2s0.2-3.2,0.3-3.2h24.3c0.2,0,0.3,1.4,0.3,3.2
				S455,46.9,454.8,46.9z"/>
			<path id="Path_783" class="st13" d="M454.8,59.5h-24.3c-0.2,0-0.3-1.4-0.3-3.2s0.2-3.2,0.3-3.2h24.3c0.2,0,0.3,1.4,0.3,3.2
				S455,59.5,454.8,59.5z"/>
			<path id="Path_784" class="st13" d="M483.8,12.2h-24.3c-0.2,0-0.3-1.4-0.3-3.2s0.2-3.2,0.3-3.2h24.3c0.2,0,0.3,1.4,0.3,3.2
				S484,12.2,483.8,12.2z"/>
			<path id="Path_785" class="st13" d="M483.8,23.2h-24.3c-0.2,0-0.3-1.4-0.3-3.2s0.2-3.2,0.3-3.2h24.3c0.2,0,0.3,1.4,0.3,3.2
				S484,23.2,483.8,23.2z"/>
			<path id="Path_786" class="st13" d="M483.8,35.9h-24.3c-0.2,0-0.3-1.4-0.3-3.2c0-1.8,0.2-3.2,0.3-3.2h24.3c0.2,0,0.3,1.4,0.3,3.2
				C484.1,34.4,484,35.9,483.8,35.9z"/>
			<path id="Path_787" class="st13" d="M483.8,46.9h-24.3c-0.2,0-0.3-1.4-0.3-3.2s0.2-3.2,0.3-3.2h24.3c0.2,0,0.3,1.4,0.3,3.2
				S484,46.9,483.8,46.9z"/>
			<path id="Path_788" class="st13" d="M483.8,59.5h-24.3c-0.2,0-0.3-1.4-0.3-3.2s0.2-3.2,0.3-3.2h24.3c0.2,0,0.3,1.4,0.3,3.2
				S484,59.5,483.8,59.5z"/>
			<path id="Path_789" class="st13" d="M510.8,35.9h-24.3c-0.2,0-0.3-6.7-0.3-15s0.2-15,0.3-15h24.3c0.2,0,0.3,6.7,0.3,15
				S511,35.9,510.8,35.9z"/>
			<rect id="Rectangle_79" x="488.2" y="40.4" class="st14" width="20.6" height="20.2"/>
			<path id="Path_748" class="st6" d="M436.3,38.5c0.1-2.9-1.3-5.6-3.8-7.1c-2.3-1.2-5.2-0.5-6.7,1.6c-1.8,2.4-2.3,5.5-1.3,8.3
				l-12.4,24.5l-7.7,19.4l6.3,7l4.9-6.4l16-40C434.4,45,436.3,42,436.3,38.5z"/>
		</g>
	</g>
</g>
</svg>
