<?xml version="1.0" encoding="utf-8"?>
<!-- Generator: Adobe Illustrator 24.2.1, SVG Export Plug-In . SVG Version: 6.00 Build 0)  -->
<svg version="1.1" id="Layer_1" xmlns="http://www.w3.org/2000/svg" xmlns:xlink="http://www.w3.org/1999/xlink" x="0px" y="0px"
	 viewBox="0 0 327.9 377" style="enable-background:new 0 0 327.9 377;" xml:space="preserve">
<style type="text/css">
	.st0{fill:#D5D6DB;}
	.st1{fill:#6C63FF;}
	.st2{fill:#5CCC6E;}
	.st3{opacity:0.1;fill:#6159E5;enable-background:new    ;}
	.st4{opacity:0.1;enable-background:new    ;}
	.st5{opacity:0.3;fill:#FFFFFF;enable-background:new    ;}
	.st6{fill:#DB3A3A;}
	.st7{fill:#3A3768;}
	.st8{opacity:0.1;fill:#DB3A3A;enable-background:new    ;}
	.st9{opacity:0.45;fill:#FFFFFF;enable-background:new    ;}
	.st10{opacity:0.1;fill:#6C63FF;enable-background:new    ;}
	.st11{fill:url(#Path_866_1_);}
	.st12{fill:#FBBEBE;}
	.st13{fill:#3E373A;}
	.st14{fill:#4B4B5B;}
	.st15{opacity:2.000000e-02;enable-background:new    ;}
	.st16{fill:#36AC2D;}
	.st17{fill:#C3C7D9;}
	.st18{fill:#E7C7CA;}
	.st19{opacity:0.1;}
	.st20{opacity:0.1;fill:none;stroke:#000000;stroke-miterlimit:10;enable-background:new    ;}
</style>
<g id="Group_49" transform="translate(-259.337 -68.008)">
	<path id="Path_829" class="st0" d="M531.3,359c0,0-10.5,12.8-2.2,32.2l-83.9,36.4l-8.1,1.7l-3.7-16.2l2.5-20.5v-11.2L531.3,359z"/>
	<path id="Path_830" class="st1" d="M266.3,350.7l116.1-21.2l153.9,24.5l-95.6,34.4L266.3,350.7z"/>
	<path id="Path_831" class="st2" d="M266.3,350.7l116.1-21.2l153.9,24.5l-95.6,34.4L266.3,350.7z"/>
	<path id="Path_832" class="st1" d="M266.3,350.7c0,0-10.9,20.6,1.7,39.6l172.2,37.3c0,0-10.7-16.4,0.6-39.1L266.3,350.7z"/>
	<path id="Path_833" class="st3" d="M266.3,350.7c0,0-10.9,20.6,1.7,39.6l172.2,37.3c0,0-10.7-16.4,0.6-39.1L266.3,350.7z"/>
	<path id="Path_835" class="st1" d="M440.2,427.6l96.1-41c0,0,5.4,1.2,1.9,5.1c-3.5,3.9-96.2,39.9-96.2,39.9L268,390.3L440.2,427.6z
		"/>
	<path id="Path_836" class="st4" d="M440.2,427.6l96.1-41c0,0,5.4,1.2,1.9,5.1c-3.5,3.9-96.2,39.9-96.2,39.9L268,390.3L440.2,427.6z
		"/>
	<path id="Path_837" class="st4" d="M432.3,392.6c0,0-9.3,11.1,0,27.8"/>
	
		<rect id="Rectangle_82" x="434.5" y="399.4" transform="matrix(0.9486 -0.3165 0.3165 0.9486 -103.0016 164.9978)" class="st4" width="43.8" height="0.5"/>
	
		<rect id="Rectangle_83" x="433.9" y="400.5" transform="matrix(0.9347 -0.3554 0.3554 0.9347 -112.3696 189.8902)" class="st4" width="53.4" height="0.5"/>
	
		<rect id="Rectangle_84" x="433.6" y="402.7" transform="matrix(0.9255 -0.3788 0.3788 0.9255 -118.0116 206.0214)" class="st4" width="61.9" height="0.5"/>
	
		<rect id="Rectangle_85" x="433.5" y="403.6" transform="matrix(0.9113 -0.4117 0.4117 0.9113 -124.6677 228.9234)" class="st4" width="71.3" height="0.5"/>
	
		<rect id="Rectangle_86" x="433.9" y="404.6" transform="matrix(0.9161 -0.401 0.401 0.9161 -122.6484 223.5957)" class="st4" width="77.9" height="0.5"/>
	
		<rect id="Rectangle_87" x="434.4" y="404.9" transform="matrix(0.918 -0.3965 0.3965 0.918 -121.198 223.9358)" class="st4" width="93.3" height="0.5"/>
	<path id="Path_838" class="st5" d="M309.4,353l81.6-17.2l49.7,9.5l-66.9,21.6L309.4,353z"/>
	<path id="Path_839" class="st1" d="M536.3,354.1c0,0,4.2,1.7,1.7,4.3s-97.3,30.1-97.3,30.1L536.3,354.1z"/>
	<path id="Path_840" class="st0" d="M577.3,314.4c0,0-10.5,12.8-2.2,32.2L491.2,383l-8.1,1.7l-3.7-16.2L482,348v-11.2L577.3,314.4z"
		/>
	<path id="Path_841" class="st6" d="M312.3,306.1L428.5,285l153.9,24.5l-95.6,34.4L312.3,306.1z"/>
	<path id="Path_842" class="st7" d="M312.3,306.1c0,0-10.9,20.6,1.6,39.6L486.2,383c0,0-10.7-16.4,0.6-39.1L312.3,306.1z"/>
	<path id="Path_843" class="st8" d="M312.3,306.1c0,0-10.9,20.6,1.6,39.6L486.2,383c0,0-10.7-16.4,0.6-39.1l-54.5-11.8L312.3,306.1z
		"/>
	<path id="Path_844" class="st4" d="M317.5,313.3c0,0-6.2,15.1,0,24.8"/>
	<path id="Path_845" class="st7" d="M486.2,383l96.1-41c0,0,5.4,1.2,1.9,5.1S488.1,387,488.1,387L314,345.7L486.2,383z"/>
	<path id="Path_846" class="st4" d="M486.2,383l96.1-41c0,0,5.4,1.2,1.9,5.1S488.1,387,488.1,387L314,345.7L486.2,383z"/>
	<path id="Path_847" class="st4" d="M478.3,348c0,0-9.3,11.1,0,27.8"/>
	
		<rect id="Rectangle_88" x="480.6" y="354.8" transform="matrix(0.9486 -0.3165 0.3165 0.9486 -86.5267 177.2741)" class="st4" width="43.8" height="0.5"/>
	
		<rect id="Rectangle_89" x="480" y="356" transform="matrix(0.9347 -0.3554 0.3554 0.9347 -93.5168 203.3421)" class="st4" width="53.4" height="0.5"/>
	
		<rect id="Rectangle_90" x="479.7" y="358.1" transform="matrix(0.9255 -0.3788 0.3788 0.9255 -97.69 220.1349)" class="st4" width="61.9" height="0.5"/>
	
		<rect id="Rectangle_91" x="479.5" y="359" transform="matrix(0.9113 -0.4117 0.4117 0.9113 -102.2296 243.9215)" class="st4" width="71.3" height="0.5"/>
	
		<rect id="Rectangle_92" x="479.9" y="360" transform="matrix(0.9161 -0.401 0.401 0.9161 -100.9011 238.3116)" class="st4" width="77.9" height="0.5"/>
	
		<rect id="Rectangle_93" x="480.4" y="360.3" transform="matrix(0.918 -0.3965 0.3965 0.918 -99.7426 238.5324)" class="st4" width="93.3" height="0.5"/>
	<path id="Path_848" class="st9" d="M355.5,308.4l81.6-17.2l49.7,9.5l-66.9,21.6L355.5,308.4z"/>
	<path id="Path_849" class="st7" d="M582.3,309.5c0,0,4.2,1.7,1.7,4.3s-97.3,30.1-97.3,30.1L582.3,309.5z"/>
	<path id="Path_850" class="st0" d="M581.6,263.4c0,0-10.5,23-2.2,42.4L495.6,332l-8,1.7l-3.7-16.2l2.5-20.5v-11.2L581.6,263.4z"/>
	<path id="Path_851" class="st1" d="M316.7,255.1L432.8,234l153.9,24.5l-95.6,34.4L316.7,255.1z"/>
	<path id="Path_852" class="st1" d="M316.7,255.1c0,0-10.9,20.6,1.6,39.6L490.6,332c0,0-10.7-16.4,0.6-39.1L316.7,255.1z"/>
	<path id="Path_853" class="st4" d="M316.7,255.1c0,0-10.9,20.6,1.6,39.6L490.6,332c0,0-10.7-16.4,0.6-39.1L316.7,255.1z"/>
	<path id="Path_854" class="st4" d="M321.8,262.3c0,0-6.2,15.1,0,24.8"/>
	<path id="Path_855" class="st1" d="M490.6,332l96.1-30.8c0,0,5.4,1.2,1.9,5.1S492.4,336,492.4,336l-174.1-41.3L490.6,332z"/>
	<path id="Path_856" class="st4" d="M490.6,332l96.1-30.8c0,0,5.4,1.2,1.9,5.1S492.4,336,492.4,336l-174.1-41.3L490.6,332z"/>
	<path id="Path_857" class="st4" d="M482.7,297c0,0-9.3,11.1,0,27.8"/>
	
		<rect id="Rectangle_94" x="484.9" y="303.8" transform="matrix(0.9486 -0.3165 0.3165 0.9486 -70.1589 176.0375)" class="st4" width="43.8" height="0.5"/>
	
		<rect id="Rectangle_95" x="484.3" y="305" transform="matrix(0.9347 -0.3554 0.3554 0.9347 -75.1023 201.5665)" class="st4" width="53.4" height="0.5"/>
	
		<rect id="Rectangle_96" x="484" y="307.1" transform="matrix(0.9255 -0.3788 0.3788 0.9255 -78.0439 217.9893)" class="st4" width="61.9" height="0.5"/>
	
		<rect id="Rectangle_97" x="483.9" y="308" transform="matrix(0.9113 -0.4117 0.4117 0.9113 -80.8433 241.2007)" class="st4" width="71.3" height="0.5"/>
	
		<rect id="Rectangle_98" x="484.3" y="309" transform="matrix(0.9161 -0.401 0.401 0.9161 -80.0803 235.7869)" class="st4" width="77.9" height="0.5"/>
	
		<rect id="Rectangle_99" x="484.8" y="309.3" transform="matrix(0.918 -0.3965 0.3965 0.918 -79.1618 236.0879)" class="st4" width="93.3" height="0.5"/>
	<path id="Path_858" class="st5" d="M359.8,257.4l81.6-17.2l49.7,9.5l-66.8,21.6L359.8,257.4z"/>
	<path id="Path_859" class="st1" d="M586.7,258.5c0,0,4.2,1.7,1.7,4.3s-97.3,30.1-97.3,30.1L586.7,258.5z"/>
	<ellipse id="Ellipse_124" class="st10" cx="332.5" cy="430.7" rx="10.7" ry="1.2"/>
	<ellipse id="Ellipse_126" class="st10" cx="385.7" cy="444.2" rx="10.7" ry="1.2"/>
	
		<linearGradient id="Path_866_1_" gradientUnits="userSpaceOnUse" x1="-353.758" y1="576.9855" x2="-353.758" y2="577.9855" gradientTransform="matrix(158.4143 0 0 -232.658 56532.5977 134541.3594)">
		<stop  offset="0" style="stop-color:#808080;stop-opacity:0.251"/>
		<stop  offset="0.54" style="stop-color:#808080;stop-opacity:0.122"/>
		<stop  offset="1" style="stop-color:#808080;stop-opacity:0.102"/>
	</linearGradient>
	<path id="Path_866" class="st11" d="M570.3,243.3c-3-8.2-19.7-9-27-6.9c-5.1,1.5-16,3.2-21.8,4l-0.4-0.4c0.8-0.2,0.8-0.8,0.7-1.6
		c-0.1-1.1,0-2.1,0-3.2c3.6,1.1,6.7-1.5,6.7-1.5l0,0c4.2-1.9,3-9.8,3.8-12c0.6-1.6,1.2-11.2,1.5-15.9h0.1l0-1.6
		c0-0.7,0.1-1.1,0.1-1.1s0.4-11.7,1.2-14c0.7-2.2,1.3-13.1,1.4-14.8v-0.2l-0.1-1c0-0.7,0.1-1.6,0.1-2.4c0-4-0.4-9-0.5-9.8v-0.4
		c0-1.7-0.2-10.2-7.4-13.4c-2.7-1.2-5.8-2.6-8.9-4c-0.8-6.9-2.6-13.7-2.5-20.7c0-1,0.1-2.1,0.2-3.1c0,0.3,0,0.6,0,0.9v2
		c0.3-8.7,3.6-17.4,3.2-25.9c0,0.8-0.1,1.7-0.2,2.5c0.2-2.9-0.1-5.7-0.9-8.5c-0.2-1-0.7-1.9-1.5-2.6c-0.8-0.5-1.6-0.9-2.5-1
		c-2.2-0.6-4.4-1-6.7-1.2c-0.3-1-0.8-2-1.5-2.9C503,76.1,496,70,487.8,68.7c-4.1-0.7-8.9-0.1-11.7,2.8c-0.3,0.3-0.6,0.5-0.8,0.8
		c-1.5,1.8-2.2,4.2-3.7,6c-0.1,0.1-0.2,0.2-0.3,0.3c-3,2.7-7.8,3.3-11.1,5.7c-0.6,0.4-1.2,0.9-1.7,1.5c-1.4,1.3-2.6,2.8-3.6,4.4
		c-1.5,2.1-3.1,4.4-3.6,6.9c-1,5.1,2.5,9.9,3.1,15.1c1.4,11.5-11.3,21.7-8.9,33c0.6,2.8,2.1,5.3,4.1,7.3c-5,4.5-9.2,8.8-9.2,8.8v0.3
		h-0.8l0.1,0.9h-0.1l0.4,5l-0.4,7.3v0.7h0c0.1,2.7,0.7,12.3,1.4,14.4c0.8,2.4,1.2,14,1.2,14s0.9,16.5,1.7,18.6s-0.3,10.1,3.8,12l0,0
		c1.2,0.9,2.7,1.5,4.2,1.7c-0.2,1.7-0.1,3,0.6,3.4c0.3,0.2,0.6,0.3,1,0.3c-0.3,0.4-0.5,0.9-0.8,1.3c-1.7-0.2-3.3-0.6-4.9-1.1
		c-4.5-1.9-19.4-6-23.8-3.1s-14.8,5.6-9.9,17.4c4.8,11.8,7.1,12.1,7.1,12.1c1.5,1.1,2.8,2.4,3.9,3.9c1.4,2.2,14.9,7.1,18.3,7.1
		c1.4,0,2.9,0,4.3,0.2c0,0-3.7,3.2-3.2,5.1s-1.1,16.8-1.1,16.8s3.7,3.7,5.3-1.2l0.1,0.1c0.3,0.4,1.9,2.2,4.9-0.1
		c1.2-0.9,2.5-1.8,3.9-2.5l14.6-2.1c1.5-0.1,3.1-0.1,4.6,0c2.3,0.2,4.6-1.2,6-2.2c3,1.1,6.4,2.4,8,2.9c3.3,0.9,18.4,5,21.9,3.7
		c0.7-0.3,1.4-0.8,1.9-1.4l3.4,0.1l-1.6,0.3c0,0,3.1,0.1,7.2,0.1l-0.2,0.1l5.2,0c7.7,0.1,16.3,0.1,17.4-0.2c1.8-0.4,11-0.1,13.7,0
		h0.8c0,0,10.1-2,5.9-12.3c-3.2-7.9-13.1-10.2-17.4-10.8c1.2-0.2,2.3-0.4,3-0.5c3.1-0.5,9-3.2,9.5-4.2c0.5-1,5.5-3.7,6.7-5.3
		C569.7,262.7,573.4,251.5,570.3,243.3z M486.6,266.3l-0.5,0.2l-0.3,0.1l-0.6,0.6c-0.5-0.3-1.1-0.7-1.6-1.1
		C484.5,266.2,485.5,266.3,486.6,266.3L486.6,266.3z"/>
	<path id="Path_867" class="st12" d="M516.1,217.5c0,0,7.1,18.5,11.1,16.7s2.9-9.7,3.7-11.9s1.6-18.5,1.6-18.5s0.4-11.6,1.2-13.9
		c0.7-2.2,1.3-13,1.4-14.7v-0.2l-0.8-13.4l-4.3-1.1l-10,3.7l-1.4,7.9l-0.5,3.1l-0.2,1.3L516.1,217.5z"/>
	<path id="Path_868" class="st4" d="M518.5,214.4c0,0,6.8,5.5,8.8,6s3.3,4.8,3.3,4.8"/>
	<path id="Path_869" class="st12" d="M460.7,218.3c0,0-7.1,18.5-11.1,16.7s-2.9-9.7-3.7-11.9s-1.6-18.5-1.6-18.5s-0.4-11.6-1.2-13.9
		c-0.7-2.2-1.3-13-1.4-14.7v-0.2l0.8-13.4l4.3-1.1l10,3.7l1.4,7.9l0.5,3.1l0.2,1.3L460.7,218.3z"/>
	<rect id="Rectangle_100" x="491" y="119" class="st13" width="15.8" height="24.7"/>
	<rect id="Rectangle_101" x="491" y="119" class="st4" width="15.8" height="24.7"/>
	<path id="Path_870" class="st14" d="M457.9,236.7c0,0-5.4,5.9-3.4,7s15,21.3,15,21.3s42.6,5.3,50.7-2.6s7.9-22,7.9-22
		s-6.5,1.4-7.2,0.6s-4.6-4.4-4.6-4.4S461.6,233.4,457.9,236.7z"/>
	<path id="Path_871" class="st15" d="M457.9,236.7c0,0-5.4,5.9-3.4,7s15,21.3,15,21.3s42.6,5.3,50.7-2.6s7.9-22,7.9-22
		s-6.5,1.4-7.2,0.6s-4.6-4.4-4.6-4.4S461.6,233.4,457.9,236.7z"/>
	<path id="Path_872" class="st12" d="M534.7,161.6l-13.9,11.1l-4.2,0.3l-1.5,0.1l-25.9,1.9l-26.9-2l-4-0.3l-5.1-0.4l-10.7-10.2
		c4.5-4.8,9.2-9.3,14.2-13.5c2.1-1.8,4.4-3.4,6.9-4.6l0.3-0.1c1.1-0.4,2.1-1.1,2.9-2c5.2-5.4,10-18.7,10-18.7s23-11.9,20.2,3.7
		s10.4,11.7,10.4,11.7l4.3,2l1.7,0.8l4.4,2l9.8,4.5C535.3,151.5,534.7,161.6,534.7,161.6z"/>
	<circle id="Ellipse_130" class="st4" cx="488" cy="115.2" r="20.7"/>
	<path id="Path_873" class="st4" d="M534.7,176.3h-93v-0.2l0.8-13.4c4.5-4.8,9.2-9.3,14.2-13.5l58.4-2.3l2.7-2.9l9.8,4.5
		c7.7,3.6,7.1,13.6,7.1,13.6S535.7,173.7,534.7,176.3z"/>
	<path id="Path_874" class="st16" d="M534.7,175.9h-93v-0.2l0.8-13.4c4.5-4.8,9.2-9.3,14.2-13.5l58.4-2.3l2.7-2.9l9.8,4.5
		c7.7,3.6,7.1,13.6,7.1,13.6S535.7,173.2,534.7,175.9z"/>
	<path id="Path_875" class="st4" d="M473.1,138.2c0,0,14.7,18.7,34.2-0.4s2.2,42.6,2.2,42.6l-42.2,5L473.1,138.2z"/>
	<path id="Path_876" class="st16" d="M473.1,139.1c0,0,14.7,18.7,34.2-0.4s2.2,42.6,2.2,42.6l-42.2,5L473.1,139.1z"/>
	<path id="Path_877" class="st4" d="M513.3,142.4l1.6,23.7l1.7,7.9l1.3,6c0,0,3.2,46.4,2.3,48.7s0.5,4.2,0.7,5.4s-0.2,4.3,0,5.7
		s0,2-3.6,1.5s-8.5-1.4-8.5-1.4s-12.5,0.9-16.8-0.6s-12.5-1.5-12.5-1.5s-12.4,0.3-16.4-0.2s-6.2,4.9-8.8,3.4s3.1-16.5,4.9-20.9
		s-2.5-15.3-2.5-15.3l5.6-30.9l1.2-7v-22l0.3-0.1c1.1-0.4,2.1-1.1,2.9-2l1.4,22.1l43.6,1.5v-24.9"/>
	<path id="Path_878" class="st16" d="M513.3,141.4l1.6,23.7l1.7,7.9l1.3,6c0,0,3.2,46.4,2.3,48.7s0.5,4.2,0.7,5.4s-0.2,4.3,0,5.7
		s0,2-3.6,1.5s-8.5-1.4-8.5-1.4s-12.5,0.9-16.8-0.6s-12.5-1.5-12.5-1.5s-12.4,0.3-16.4-0.2s-6.2,4.9-8.8,3.4s3.1-16.5,4.9-20.9
		s-2.5-15.3-2.5-15.3l5.6-30.9l1.2-7v-22l0.3-0.1c1.1-0.4,2.1-1.1,2.9-2l1.4,22.1l43.6,1.5v-24.9"/>
	<path id="Path_879" class="st4" d="M518.4,92c-0.2-1-0.7-1.9-1.4-2.6c-0.7-0.5-1.6-0.9-2.4-1c-2.1-0.6-4.3-1-6.4-1.2
		c-0.3-1-0.8-2-1.4-2.9c-4.5-6.4-11.3-12.5-19.2-13.8c-4.1-0.7-8.9-0.1-11.6,3.2c-1.5,1.8-2.1,4.2-3.6,5.9
		c-2.8,3.4-7.9,3.8-11.5,6.5c-1.8,1.5-3.4,3.3-4.6,5.4c-1.5,2.1-3,4.3-3.4,6.9c-0.9,5.1,2.4,9.9,3,15c1.4,11.4-10.8,21.5-8.5,32.8
		c1.3,6.6,7.4,11.2,13.7,13.5c2.2,0.8,4.7,1.7,5.8,3.8c0.5,0.9,0.5,2,1,2.9c1.5,3.1,6.3,3.2,8.9,1s3.4-6,3.7-9.4
		c1.2-15-4.8-29.8-4.1-44.9c0.2-4.5,1.5-9.7,5.6-11.8c5.5-2.8,12.1,1.9,18.1,1c2.9,6.9,3.5,14.6,1.7,21.9c-1,4-2.6,7.9-2.7,12
		c-0.2,6.3,3.2,12,6.1,17.6c0.6,1,1,2.2,1.2,3.4c0,1.2-0.2,2.4-0.7,3.5c-1.7,4.5-4.5,8.6-4.8,13.3c-0.1,0.6,0,1.1,0.3,1.6
		c0.3,0.3,0.8,0.5,1.2,0.5c5,0.9,9.3-3.6,11.8-8c2.7-4.9,4.3-10.4,4.6-16c0.5-9.4-2.9-18.7-2.7-28.2
		C516.3,113.2,521.2,102.4,518.4,92z"/>
	<path id="Path_880" class="st13" d="M518.8,91.5c-0.2-1-0.7-1.9-1.4-2.6c-0.7-0.5-1.6-0.9-2.4-1c-2.1-0.6-4.3-1-6.4-1.2
		c-0.3-1-0.8-2-1.4-2.9c-4.5-6.4-11.3-12.5-19.2-13.8c-4.1-0.7-8.9-0.1-11.6,3.2c-1.5,1.8-2.1,4.2-3.6,5.9
		c-2.8,3.4-7.9,3.8-11.5,6.5c-1.8,1.5-3.4,3.3-4.6,5.4c-1.5,2.1-3,4.3-3.4,6.9c-0.9,5.1,2.4,9.9,3,15c1.4,11.4-10.8,21.5-8.5,32.8
		c1.3,6.6,7.4,11.2,13.7,13.5c2.2,0.8,4.7,1.7,5.8,3.8c0.5,0.9,0.5,2,1,2.9c1.5,3.1,6.3,3.2,8.9,1s3.4-6,3.7-9.4
		c1.2-15-4.8-29.8-4.1-44.9c0.2-4.5,1.5-9.7,5.6-11.8c5.5-2.8,12.1,1.9,18.1,1c2.9,6.9,3.5,14.6,1.7,21.9c-1,4-2.6,7.9-2.7,12
		c-0.2,6.3,3.2,12,6.1,17.6c0.6,1,1,2.2,1.2,3.4c0,1.2-0.2,2.4-0.7,3.5c-1.7,4.5-4.5,8.6-4.8,13.3c-0.1,0.6,0,1.1,0.3,1.6
		c0.3,0.3,0.8,0.5,1.2,0.5c5,0.9,9.3-3.6,11.8-8c2.7-4.9,4.3-10.4,4.6-16c0.5-9.4-2.9-18.7-2.7-28.2
		C516.8,112.7,521.7,101.9,518.8,91.5z"/>
	<path id="Path_881" class="st17" d="M508.6,296.8l18.4,0.6l-2.6-13.6l-14.1,1.3L508.6,296.8z"/>
	<path id="Path_882" class="st14" d="M565.6,264.5c-1.2,1.5-6,4.3-6.5,5.3s-6.2,3.7-9.1,4.2s-12.2,2.5-13.9,3.6
		c-1.2,0.8-11,3.2-17.4,4.6c-1.7,0.4-3.5,0.7-5.3,1c-2.8,0.2-33.2-10.2-33.2-10.2l5.9-6l0.3-0.1c1.7-0.6,9.3-3.2,13.6-4.4
		c4.8-1.4,10.4-7.1,10.4-7.1s8.2-2.8,9.3-3.1s-2.8-10.8-2.8-10.8s17.8-2.5,24.7-4.6s23-1.3,26,6.9S566.8,262.9,565.6,264.5z"/>
	<path id="Path_883" class="st18" d="M484.6,290.6c0,0-3.6,3.7-7.1,3.4s-16,0.9-16,0.9c-2.3,0.9-4.4,2.1-6.3,3.6
		c-2.9,2.3-4.5,0.5-4.7,0.1l-0.1-0.1c-1.5,4.9-5.1,1.2-5.1,1.2s1.5-14.8,1.1-16.7s3.1-5,3.1-5l4.2-1.1l10.6-2.7l15.1,5.3
		L484.6,290.6z"/>
	<path id="Path_884" class="st4" d="M453.6,276.9l-3.1,21.7l-0.1-0.1c-1.5,4.9-5.1,1.2-5.1,1.2s1.5-14.8,1.1-16.7s3.1-5,3.1-5
		L453.6,276.9z"/>
	<path id="Path_885" class="st4" d="M475.5,215.2c0,0,8.2,2.8,15.3,0"/>
	<path id="Path_886" class="st4" d="M503.4,220.4c0,0,3.4,1.7,6,0"/>
	<path id="Path_887" class="st4" d="M503.4,224.5c0,0,5.7,0.8,6.8-0.8"/>
	<path id="Path_888" class="st4" d="M501.6,233.1c0,0,10.7-1.4,13.4-3.2"/>
	<path id="Path_889" class="st4" d="M468.8,229.9c0,0,6,3.4,10.5,3.2"/>
	<path id="Path_890" class="st4" d="M518.6,282.1c-1.7,0.4-3.5,0.7-5.3,1c-2.8,0.2-33.2-10.2-33.2-10.2l5.9-6l0.3-0.1
		c0.9,0.7,1.7,1.2,2.2,1.6c2.6,2,5-0.6,5.9-0.6s9,6.6,9,6.6s7.4,1.7,8.7,3.2c1.2,1.5,5.6,1.2,6.3,2.3
		C518.7,280.6,518.7,281.4,518.6,282.1z"/>
	<path id="Path_891" class="st14" d="M462.2,242.6c0,0-7.5,0.4-11.8-1.4s-18.7-6-22.9-3.1s-14.2,5.6-9.6,17.3s6.8,12.1,6.8,12.1
		c1.4,1.1,2.7,2.4,3.7,3.8c1.4,2.2,14.4,7.1,17.6,7.1s9,0,17,5.6c4.5,3.3,9.8,5.4,15.3,6.2c0,0,10.2,4.2,13.4,5.1s17.7,4.9,21.1,3.7
		s5.6-9,5.6-9s1.5-7,0.8-8s-5.1-0.8-6.3-2.3s-8.7-3.2-8.7-3.2s-8-6.6-8.9-6.6s-3.4,2.6-5.9,0.6c-5.1-3.8-10.4-7.2-16-10.2
		C467.4,257.1,462.2,242.6,462.2,242.6z"/>
	<path id="Path_892" class="st4" d="M446.4,246.4c2.7-0.6,5.5,0.2,7.6,2c3.7,3.1,16.2,9.3,16.2,9.3"/>
	<path id="Path_893" class="st4" d="M539.1,246.2c0,0-16.5,2.5-19.6,5.9"/>
	<path id="Path_894" class="st18" d="M558.1,297.4h-0.7c-2.6-0.1-11.5-0.4-13.2,0c-2,0.5-28.6,0-28.6,0l5.2-1.1c0,0-1.9-6.8-0.7-7.3
		c0,0-7-4.6-1.7-7.7c3.3-1.8,7.2-2.5,10.9-1.8l13.2-4.5l2.5-0.9c0,0,14.8,0.8,18.8,11S558.1,297.4,558.1,297.4z"/>
	<path id="Path_895" class="st4" d="M558.1,297.4h-0.7c4.3-3.6,14.1-14.4-14.9-22.3l2.5-0.9c0,0,14.8,0.8,18.8,11
		S558.1,297.4,558.1,297.4z"/>
	<circle id="Ellipse_131" class="st14" cx="530.9" cy="284.6" r="0.8"/>
	<circle id="Ellipse_132" class="st14" cx="526.2" cy="285.9" r="0.8"/>
	<g id="Group_48" transform="translate(445.004 97.158)" class="st19">
		<path id="Path_896" d="M58.2,17.3c0.2-5.1-0.7-10.2-2.7-14.9c-6,0.9-12.6-3.8-18.1-1c-4.1,2.1-5.3,7.2-5.6,11.8
			c-0.1,1.2-0.1,2.4,0,3.6c0-0.4,0-0.9,0-1.3c0.2-4.5,1.5-9.7,5.6-11.8c5.5-2.8,12.1,1.9,18.1,1C57.2,8.7,58.1,13,58.2,17.3z"/>
		<path id="Path_897" d="M11.5,16.5c0.1-1,0.1-2-0.1-3c-0.5-4.1-2.7-8-3.1-12c-0.5,4.8,2.5,9.4,3.1,14.3
			C11.5,16,11.5,16.2,11.5,16.5z"/>
		<path id="Path_898" d="M35.9,58.1c-0.3,3.4-1.1,7.1-3.7,9.4s-7.4,2.2-8.9-1c-0.5-0.9-0.5-2-1-2.9c-1-2.1-3.6-2.9-5.8-3.8
			c-6.3-2.4-12.3-7-13.7-13.5c-0.1-0.6-0.2-1.2-0.2-1.8c-0.1,1.4,0,2.8,0.2,4.1c1.3,6.6,7.4,11.2,13.7,13.5c2.2,0.8,4.7,1.7,5.8,3.8
			c0.5,0.9,0.5,2,1,2.9c1.5,3.1,6.3,3.2,8.9,1s3.4-6,3.7-9.4c0.1-1.8,0.2-3.6,0.1-5.4C36,56,36,57,35.9,58.1z"/>
		<path id="Path_899" d="M71.7,24.1v2c0.3-8.6,3.4-17.3,3.1-25.7C74.6,8.2,71.9,16.2,71.7,24.1z"/>
		<path id="Path_900" d="M61.8,59c0.1-0.5,0.2-1.1,0.1-1.7c-0.2-1.2-0.6-2.4-1.2-3.4c-2.7-5.1-5.7-10.3-6.1-16c0,0.2,0,0.5,0,0.7
			c-0.2,6.3,3.2,12,6.1,17.6C61.1,57.1,61.5,58,61.8,59z"/>
		<path id="Path_901" d="M74.4,52.3c-0.3,5.6-1.9,11.1-4.7,16c-2.4,4.5-6.8,8.9-11.8,8c-0.5,0-0.9-0.2-1.2-0.5
			c-0.1-0.1-0.2-0.2-0.2-0.4c-0.1,0.4-0.1,0.7-0.1,1.1c-0.1,0.6,0,1.1,0.3,1.6c0.3,0.3,0.7,0.5,1.2,0.5c5,0.9,9.3-3.6,11.8-8
			c2.7-4.9,4.3-10.4,4.7-16c0.1-1.1,0.1-2.2,0-3.2C74.4,51.7,74.4,52,74.4,52.3z"/>
	</g>
	<path id="Path_902" class="st20" d="M520.1,289c0,0,11.7,4.9,19.5-6"/>
	<path id="Path_903" class="st20" d="M522.4,297.6c0,0,9.6-6.2,21.8-0.2"/>
	<path id="Path_904" class="st20" d="M458.3,296.2c0,0,4-9.1,14.8-2.2"/>
	<path id="Path_905" class="st4" d="M445.3,162l8.2-7.4c0,0,31.8-2.1,33.1,8.7c0,0,11.3-12.8,35-10l10,8l-27.7,12.2l-27,9.4
		l-19.9-8.9L445.3,162z"/>
	<path id="Path_906" class="st0" d="M445.3,162.4l8.2-7.4c0,0,31.8-2.1,33.1,8.7c0,0,11.3-12.8,35-10l10,8l-27.7,12.2l-27,9.4
		l-19.9-8.9L445.3,162.4z"/>
	<path id="Path_907" class="st4" d="M441.6,163.3l3.6,43.4l38.5,1.9l-1.7-43.2l0-0.7L441.6,163.3z"/>
	<path id="Path_908" class="st1" d="M441.6,162.4l3.6,43.4l38.5,1.9l-1.7-43.2l0-0.7L441.6,162.4z"/>
	<path id="Path_909" class="st4" d="M533.4,162.4l-39.7,6V212l38.8-5.6L533.4,162.4z"/>
	<path id="Path_910" class="st1" d="M533.4,161.5l-39.7,6v43.6l38.8-5.6L533.4,161.5z"/>
	<path id="Path_911" class="st5" d="M524,172.1l-21.4,2.4l0.5,7.3l21-2.3L524,172.1z"/>
	<path id="Path_912" class="st12" d="M447.3,229.1l2.2,5.9c0,0,3.2,2.8,6.8,1.4s6.6-2.1,8.2-3.4s3.7-8.2,3.7-8.2s2.2-7.4,4.3-9.3
		s7.9-27.4,0-24.9s-13.9,25.7-13.9,25.7c-0.9,1-2.1,1.7-3.4,1.9c-2,0.2-6-0.3-6.8,1.4S445,225.7,447.3,229.1z"/>
	<path id="Path_913" class="st4" d="M493.7,168.4c-4.1,0.9-8.4-0.1-11.6-2.9l1.7,43.2c2.6,2.6,6.3,3.8,10,3.3L493.7,168.4z"/>
	<path id="Path_914" class="st1" d="M493.7,167.4c-4.1,0.9-8.4-0.1-11.6-2.9l1.7,43.2c2.6,2.6,6.3,3.8,10,3.3L493.7,167.4z"/>
	<path id="Path_915" class="st4" d="M493.7,167.4c-4.1,0.9-8.4-0.1-11.6-2.9l1.7,43.2c2.6,2.6,6.3,3.8,10,3.3L493.7,167.4z"/>
	<path id="Path_916" class="st4" d="M494.6,162.6c0,0,16.1-4.9,20.4-4.2"/>
	<path id="Path_917" class="st4" d="M476.6,160.4c0,0-15.7-3.7-18.3-2.7"/>
	<path id="Path_918" class="st4" d="M504.8,163.2c0,0,10.8-4,14.7-2.1"/>
	<path id="Path_919" class="st4" d="M499.4,262.5c1.7-1.3,3.5-2.4,5.3-3.3c2.7-1.5,5.3-3.1,7.9-4.8"/>
	<path id="Path_920" class="st4" d="M458.3,215.2c0,0-6.8,5.5-8.8,6s-3.3,4.8-3.3,4.8"/>
	<path id="Path_921" class="st12" d="M529.4,228.3l-2.2,5.9c0,0-3.2,2.8-6.8,1.4s-6.6-2.1-8.2-3.4c-1.5-1.4-3.7-8.2-3.7-8.2
		s-2.2-7.4-4.3-9.3s-7.9-27.4,0-24.9c7.9,2.5,13.9,25.7,13.9,25.7c0.9,1,2.1,1.7,3.4,1.9c2,0.2,6-0.3,6.8,1.4
		S531.7,224.9,529.4,228.3z"/>
	<path id="Path_922" class="st4" d="M525.6,217.4c0,0,4.4,2.8,4.4,6.2"/>
	<circle id="Ellipse_133" class="st12" cx="488.1" cy="114.2" r="20.7"/>
	<path id="Path_923" class="st13" d="M475.1,108.7c2.5-0.4,4.7-1.9,7.1-2.7c5.4-1.9,11.3-0.6,16.8,1.1c2,0.8,4.2,1.3,6.4,1.4
		c2.2,0.1,4.4-0.9,5.6-2.8c0.9-1.8,0.9-4,0-5.8c-1-1.8-2.2-3.4-3.8-4.7c-4.8-4.6-10.8-8.8-17.4-8.3c-2.7,0.3-5.2,1-7.7,2.2
		c-3.1,1.3-6.1,2.8-9,4.5c-2.2,1.3-6.4,3-7.6,5.4C462.5,104.3,470.5,109.4,475.1,108.7z"/>
	<path id="Path_924" class="st4" d="M510.9,103.7c-1.3,1.8-3.4,2.9-5.6,2.8c-2.2-0.1-4.3-0.6-6.4-1.4c-5.4-1.7-11.4-3-16.8-1.1
		c-2.4,0.8-4.6,2.3-7.1,2.7c-3.7,0.6-9.6-2.6-10.2-6.7c-0.7,4.7,6.1,8.7,10.2,8.1c2.5-0.4,4.7-1.9,7.1-2.7
		c5.4-1.9,11.3-0.6,16.8,1.1c2,0.8,4.2,1.2,6.4,1.4c2.2,0.1,4.4-1,5.6-2.8c0.6-1,0.8-2.2,0.6-3.4
		C511.5,102.4,511.3,103.1,510.9,103.7L510.9,103.7z"/>
</g>
</svg>
