<?xml version="1.0" encoding="utf-8"?>
<!-- Generator: Adobe Illustrator 24.2.1, SVG Export Plug-In . SVG Version: 6.00 Build 0)  -->
<svg version="1.1" id="Layer_1" xmlns="http://www.w3.org/2000/svg" xmlns:xlink="http://www.w3.org/1999/xlink" x="0px" y="0px"
	 viewBox="0 0 285 265" style="enable-background:new 0 0 285 265;" xml:space="preserve">
<style type="text/css">
	.st0{fill:#B2AAAA;}
	.st1{fill:#CCCCCC;}
	.st2{fill:#3F3D56;}
	.st3{fill:#FFFFFF;}
	.st4{fill:#F0F0F0;}
	.st5{fill:#E6E6E6;}
	.st6{fill:#E4E4E4;}
	.st7{fill:#D7D6E1;}
	.st8{fill:#FFB8B8;}
	.st9{opacity:0.2;fill:#231F20;enable-background:new    ;}
	.st10{fill:#2F2E41;}
	.st11{fill:#575A89;}
	.st12{fill:#FFB6B6;}
	.st13{fill:#6C63FF;}
	.st14{fill:#FFB9B9;}
</style>
<g id="Group_36" transform="translate(0)">
	<g id="Group_34">
		<path id="Path_602" class="st0" d="M148.1,222.1l-5-2.1l-3.4-24.9H94.3l-3.7,24.8l-4.4,2.2c-0.5,0.3-0.7,0.9-0.5,1.4
			c0.2,0.4,0.5,0.6,0.9,0.6h61.1c0.6,0,1.1-0.5,1.1-1.1C148.7,222.7,148.5,222.3,148.1,222.1L148.1,222.1z"/>
		<path id="Path_603" class="st1" d="M228.8,198.4H5.7c-2.4,0-4.4-2-4.4-4.4v-31.5h231.9V194C233.2,196.4,231.2,198.4,228.8,198.4
			L228.8,198.4z"/>
		<path id="Path_604" class="st2" d="M233.4,177.4H1.1V42.8c0-2.9,2.4-5.3,5.3-5.3h221.7c2.9,0,5.3,2.4,5.3,5.3L233.4,177.4z"/>
		<path id="Path_605" class="st3" d="M219.6,47.3H15c-2.3,0-4.1,1.8-4.1,4.1v112.2c0,2.3,1.8,4.1,4.1,4.1h204.6
			c2.3,0,4.1-1.8,4.1-4.1V51.4C223.7,49.1,221.8,47.3,219.6,47.3z"/>
		<path id="Path_606" class="st4" d="M51.3,47.3v120.4H15c-2.3,0-4.1-1.8-4.1-4.1V51.4c0-2.3,1.8-4.1,4.1-4.1H51.3z"/>
		<path id="Path_619" class="st3" d="M121.9,61.4c-0.7,0-1.2,0.6-1.2,1.2v20.8c0,0.7,0.6,1.2,1.2,1.2h83.8c0.7,0,1.2-0.6,1.2-1.2
			V62.6c0-0.7-0.6-1.2-1.2-1.2L121.9,61.4z"/>
		<path id="Path_620" class="st5" d="M132.1,51.1c-0.7,0-1.2,0.6-1.2,1.2v20.8c0,0.7,0.6,1.2,1.2,1.2h83.8c0.7,0,1.2-0.6,1.2-1.2
			V52.4c0-0.7-0.6-1.2-1.2-1.2L132.1,51.1z"/>
		<path id="Path_621" class="st3" d="M132.3,73h83.5V52.5h-83.5V73z"/>
		<path id="Path_622" class="st6" d="M141.8,58.4c-0.6,0-1.1,0.5-1.1,1.1c0,0.6,0.5,1.1,1.1,1.1c0,0,0,0,0,0h64.5
			c0.6,0,1.1-0.5,1.1-1.1c0-0.6-0.5-1.1-1.1-1.1H141.8z"/>
		<path id="Path_623" class="st6" d="M141.8,64.9c-0.6,0-1.1,0.5-1.1,1.1c0,0.6,0.5,1.1,1.1,1.1h64.5c0.6,0,1.1-0.5,1.1-1.1
			c0-0.6-0.5-1.1-1.1-1.1H141.8z"/>
		<path id="Path_624" class="st3" d="M63.7,96.6c-0.7,0-1.2,0.6-1.2,1.2v20.8c0,0.7,0.6,1.2,1.2,1.2h83.8c0.7,0,1.2-0.6,1.2-1.2
			V97.9c0-0.7-0.6-1.2-1.2-1.2L63.7,96.6z"/>
		<path id="Path_625" class="st5" d="M132.1,79.2c-0.7,0-1.2,0.6-1.2,1.2v20.8c0,0.7,0.6,1.2,1.2,1.2h83.8c0.7,0,1.2-0.6,1.2-1.2
			V80.5c0-0.7-0.6-1.2-1.2-1.2L132.1,79.2z"/>
		<path id="Path_683" class="st5" d="M132.1,109.7c-0.7,0-1.2,0.6-1.2,1.2v20.8c0,0.7,0.6,1.2,1.2,1.2h83.8c0.7,0,1.2-0.6,1.2-1.2
			v-20.8c0-0.7-0.6-1.2-1.2-1.2L132.1,109.7z"/>
		<path id="Path_688" class="st5" d="M132.1,139.3c-0.7,0-1.2,0.6-1.2,1.2v20.8c0,0.7,0.6,1.2,1.2,1.2h83.8c0.7,0,1.2-0.6,1.2-1.2
			v-20.8c0-0.7-0.6-1.2-1.2-1.2L132.1,139.3z"/>
		<path id="Path_692" class="st5" d="M57,139.3c-0.6,0.1-1.1,0.6-1,1.2V161c-0.1,0.6,0.4,1.2,1,1.2h68.2c0.6-0.1,1.1-0.6,1-1.2
			v-20.5c0.1-0.6-0.4-1.2-1-1.2H57z"/>
		<path id="Path_696" class="st5" d="M58.1,110c-0.6,0.1-1.1,0.6-1,1.2v20.5c-0.1,0.6,0.4,1.2,1,1.2h68.2c0.6-0.1,1.1-0.6,1-1.2
			v-20.5c0.1-0.6-0.4-1.2-1-1.2H58.1z"/>
		<path id="Path_700" class="st5" d="M57,51.5c-0.6,0-1,1.3-1,2.9v48.4c0,1.6,0.5,2.9,1,2.9h68.2c0.6,0,1-1.3,1-2.9V54.4
			c0-1.6-0.5-2.9-1-2.9L57,51.5z"/>
		<path id="Path_626" class="st3" d="M132.3,101.1h83.5V80.6h-83.5V101.1z"/>
		<path id="Path_682" class="st3" d="M132.3,131.5h83.5v-20.5h-83.5V131.5z"/>
		<path id="Path_689" class="st3" d="M132.3,161.2h83.5v-20.5h-83.5V161.2z"/>
		<path id="Path_693" class="st3" d="M57.1,160.8H125v-20.1H57.1V160.8z"/>
		<path id="Path_697" class="st3" d="M58.2,131.5h67.9v-20.1H58.2V131.5z"/>
		<path id="Path_701" class="st7" d="M57.1,102.3H125V54.8H57.1V102.3z"/>
		<path id="Path_627" class="st6" d="M141.8,86.5c-0.6,0-1.1,0.5-1.1,1.1c0,0.6,0.5,1.1,1.1,1.1h64.5c0.6,0,1.1-0.5,1.1-1.1
			c0-0.6-0.5-1.1-1.1-1.1H141.8z"/>
		<path id="Path_685" class="st6" d="M141.8,116.9c-0.6,0-1.1,0.5-1.1,1.1c0,0.6,0.5,1.1,1.1,1.1h64.5c0.6,0,1.1-0.5,1.1-1.1
			c0-0.6-0.5-1.1-1.1-1.1H141.8z"/>
		<path id="Path_686" class="st6" d="M141.8,146.6c-0.6,0-1.1,0.5-1.1,1.1c0,0.6,0.5,1.1,1.1,1.1h64.5c0.6,0,1.1-0.5,1.1-1.1
			c0-0.6-0.5-1.1-1.1-1.1H141.8z"/>
		<path id="Path_690" class="st6" d="M64.8,146.5c-0.6,0.1-1,0.7-0.9,1.3c0.1,0.4,0.4,0.8,0.9,0.9h52.5c0.6-0.1,1-0.7,0.9-1.3
			c-0.1-0.4-0.4-0.8-0.9-0.9H64.8z"/>
		<path id="Path_694" class="st6" d="M66,117.2c-0.6,0.1-1,0.7-0.9,1.3c0.1,0.4,0.4,0.8,0.9,0.9h52.5c0.6-0.1,1-0.7,0.9-1.3
			c-0.1-0.4-0.4-0.8-0.9-0.9H66z"/>
		<path id="Path_628" class="st6" d="M141.8,93c-0.6,0-1.1,0.5-1.1,1.1c0,0.6,0.5,1.1,1.1,1.1h64.5c0.6,0,1.1-0.5,1.1-1.1
			c0-0.6-0.5-1.1-1.1-1.1c0,0,0,0,0,0H141.8z"/>
		<path id="Path_684" class="st6" d="M141.8,123.5c-0.6,0-1.1,0.5-1.1,1.1c0,0.6,0.5,1.1,1.1,1.1h64.5c0.6,0,1.1-0.5,1.1-1.1
			c0-0.6-0.5-1.1-1.1-1.1c0,0,0,0,0,0H141.8z"/>
		<path id="Path_687" class="st6" d="M141.8,153.1c-0.6,0-1.1,0.5-1.1,1.1c0,0.6,0.5,1.1,1.1,1.1h64.5c0.6,0,1.1-0.5,1.1-1.1
			c0-0.6-0.5-1.1-1.1-1.1c0,0,0,0,0,0H141.8z"/>
		<path id="Path_691" class="st6" d="M64.8,152.9c-0.6,0.1-1,0.7-0.9,1.3c0.1,0.4,0.4,0.8,0.9,0.9h52.5c0.6-0.1,1-0.7,0.9-1.3
			c-0.1-0.4-0.4-0.8-0.9-0.9H64.8z"/>
		<path id="Path_695" class="st6" d="M66,123.6c-0.6,0.1-1,0.7-0.9,1.3c0.1,0.4,0.4,0.8,0.9,0.9h52.5c0.6-0.1,1-0.7,0.9-1.3
			c-0.1-0.4-0.4-0.8-0.9-0.9H66z"/>
		<g id="Group_2" transform="translate(205.684)">
			<path id="Path_5" class="st8" d="M65,58.5c0,0,2.9,37.4-1.2,38.5s-18.4,9.8-41.4,7.5c0,0-22.4,12.1-19,0.6s19-8.6,19-8.6
				s27.6-5.8,28.8-9.8S47.7,66,49.4,65.4S65,58.5,65,58.5z"/>
			<path id="Path_6" class="st9" d="M63,59c0,0,2.9,37.4-1.2,38.5s-18.4,9.8-41.4,7.5c0,0-22.4,12.1-19,0.6s19-8.6,19-8.6
				s27.6-5.8,28.8-9.8s-3.5-20.7-1.7-21.3S63,59,63,59z"/>
			<path id="Path_7" class="st10" d="M30.7,119.1c0,0,2,62.9,5.5,71c2.9,6.7,4.6,28.6,5,35.7c0.1,1.4,0.1,2.3,0.1,2.3s9.2,0,9.8-2.3
				s2.3-27.6,0-35.7s3.3-67.6,3.3-67.6L30.7,119.1z"/>
			<path id="Path_8" class="st10" d="M43.7,225.2c0,0-5.8,1.7-6.9,4s-20.1,6.3-14.4,9.2s23-2.3,23-2.3s9.2-0.6,8.6-4
				c-0.6-2.7-1.5-5.2-2.7-7.7L43.7,225.2z"/>
			<path id="Path_9" class="st10" d="M59.8,227.1c0,0-5.8,1.7-6.9,4s-20.1,6.3-14.4,9.2s23-2.3,23-2.3s9.2-0.6,8.6-4
				c-0.6-2.7-1.5-5.2-2.7-7.7L59.8,227.1z"/>
			<path id="Path_10" class="st10" d="M35.6,122.4l8.1,13.8l13.4,48c0,0-1.4,44,0.4,44s10.9,2.9,11.5,0c0.5-2.4,6.9-25.7,3.7-41.2
				c-2.1-9.8-3.4-19.7-4-29.7l-1.4-26.9c0,0,5.8-10.4-0.6-12.1S35.6,122.4,35.6,122.4z"/>
			<circle id="Ellipse_5" class="st8" cx="43.1" cy="20" r="13.8"/>
			<path id="Path_11" class="st8" d="M41.4,29.2c0,0,2.3,18.4,1.7,19.6s13.8-12.7,13.8-12.7s-5.2-8.1-4-12.1L41.4,29.2z"/>
			<path id="Path_12" class="st11" d="M73.6,47.6c0,0-16.1-11.5-16.7-13.8L44.8,44.1l-2.1-2.4c0,0-9.5,9.3-9.5,13.4
				s-0.6,16.1,1.2,19.6s-5.2,47.2-5.2,47.2s5.8,5.2,6.3,5.8s23.6-3.5,23.6-3.5s11.5-1.1,11.5-2.9s-3.5-27.6-2.3-34.5
				S73.6,47.6,73.6,47.6z"/>
			<path id="Path_13" class="st10" d="M37.2,13.1c1.9-0.8,3.9-0.9,5.9-0.5c2.7,0.8,4.6,3.2,6.6,5.1s4.9,3.7,7.6,2.8
				c-0.2-1.2,0.1-2.3,0.8-3.3c0.3-0.3,0.6-0.8,0.8-1.3c0.1-0.7-0.5-1.4-0.7-2.1c-0.3-1.3,0.6-3-0.5-3.7C57.4,10,57,10,56.8,9.8
				c-1.1-0.8,0.1-2.7-0.6-3.9c-0.2-0.3-0.5-0.5-0.8-0.7c-5.3-3.1-11.9-3.1-18-3c-0.9,0-2.1,0.4-1.8,1.3c-1.2-0.8-2.7,0.3-3.6,1.4
				l-1.9,2.2c-0.9,1-1.7,2-2.4,3.2c-0.6,1.1-0.7,2.9,0.5,3.3c-0.9-0.4-1.9,4.8,2.1,3.9C32.4,17.1,34.7,14,37.2,13.1z"/>
			<path id="Path_19" class="st3" d="M24.4-36.9L24.4-36.9z"/>
			<path id="Path_17" class="st8" d="M77.1,63.7c0,0,2.9,37.4-1.2,38.5s-18.4,9.8-41.4,7.5c0,0-22.4,12.1-19,0.6s19-8.6,19-8.6
				s27.6-5.8,28.8-9.8c1.2-4-3.5-20.7-1.7-21.3S77.1,63.7,77.1,63.7z"/>
			<path id="Path_18" class="st11" d="M64.4,48.7l9.2-1.2c0,0,9.2,17.8,4,20.7s-18.4,5.2-18.4,4S64.4,48.7,64.4,48.7z"/>
		</g>
	</g>
	<g id="Group_31" transform="translate(8.636 88.958)">
		<path id="Path_607" class="st12" d="M80.3-10c-2.4-0.6-4.9,1-5.4,3.4c-0.1,0.3-0.1,0.5-0.1,0.8L59.3-1.2l6.4,5.4L79.4-1
			C82-1,84-3.1,83.9-5.6C83.9-7.7,82.4-9.5,80.3-10L80.3-10z"/>
		<path id="Path_608" class="st13" d="M17.8,24.3c-3.6,0-6.5-2.9-6.4-6.5c0-2.8,1.8-5.2,4.4-6.1L47.1,1.2l24.5-8.9l3,10.5L53,17
			l-33.8,7.2C18.7,24.3,18.3,24.3,17.8,24.3z"/>
		<path id="Path_609" class="st12" d="M37.4,169.1h4.4l2.1-17h-6.5V169.1z"/>
		<path id="Path_610" class="st10" d="M36.3,167.7H45c3.1,0,5.5,2.5,5.5,5.5v0.2H36.3L36.3,167.7z"/>
		<path id="Path_611" class="st12" d="M3.7,169.1h4.4l2.1-17H3.7V169.1z"/>
		<path id="Path_612" class="st10" d="M2.6,167.7h8.7c3.1,0,5.5,2.5,5.5,5.5l0,0v0.2H2.6L2.6,167.7z"/>
		<path id="Path_613" class="st10" d="M3.6,67.2c-2,4.7-2.5,9.9-1.3,14.9l-1.3,84.2h9.7l5.4-46.3l9-30.5l9.7,23.7v49.4l9.3-0.6
			l5-52.4l-5.7-37.3L3.6,67.2z"/>
		<path id="Path_614" class="st13" d="M39,1.7l-8.3-2.5l-2.2-4.3H18l-2.7,4.7c0,0-10.8,4-11.1,23S2.4,72.1,2.4,72.1l42.5,6.1L39,1.7
			z"/>
		<path id="Path_615" class="st12" d="M51.2,74.7c1.1-2.3,0.1-5-2.2-6c-0.2-0.1-0.5-0.2-0.8-0.3L47,52.3l-6.6,5.1L42.6,72
			c-0.5,2.5,1.1,4.9,3.6,5.3C48.3,77.7,50.3,76.6,51.2,74.7L51.2,74.7z"/>
		<path id="Path_616" class="st13" d="M39.9,66.4l-9.4-24.1V7.8c0-3.6,2.9-6.5,6.4-6.5c3.3,0,6,2.5,6.4,5.7l3.8,32.9l3.6,25.8
			L39.9,66.4z"/>
		<circle id="Ellipse_112" class="st14" cx="25.3" cy="-21.3" r="10.6"/>
		<path id="Path_617" class="st10" d="M26-24.6c-0.5,0.6-1.2,1.2-1.3,2c0,0.6,0.1,1.2,0.2,1.8c0,1.3-1,2.3-2.2,2.4
			c-0.4-0.5-1-0.9-1.7-1c-0.7-0.1-1.3,0.3-1.6,0.9c-0.3,0.9,0.4,1.8,0.5,2.7c0,0.7-0.1,1.4-0.3,2c-0.2,1.1-0.4,2.2-0.8,3.2
			c-0.4,1.1-1.5,1.7-2.6,1.6c-0.9-0.3-1.6-1-1.8-2c-0.3-0.9-0.2-1.8-0.4-2.8c-0.6-3-3.2-5.2-4.2-8c-1.3-3.7,0.3-7.8,2.9-10.7
			c1.1-1.2,2.5-2.1,4-2.6c1.7-0.4,3.4-0.1,5.1-0.3c1.8-0.3,3.6-0.8,5.3-1.4c1.7-0.6,3.7-0.5,5.3,0.2c1,0.7,2,1.5,3,2.4
			c1.2,0.8,2.6,1.2,4.1,1.1l-1.7,0.8c0.7,0.6,1.5,1,2.3,1.3c-0.7,0.6-1.6,0.9-2.5,0.9c0.4,0.7,1,1.2,1.8,1.4
			c-1.3,0.7-2.7,1.1-4.2,1.1c-0.7-0.1-1.4-0.3-2.1-0.5c-1.5-0.2-3-0.1-4.5,0.3c-0.8,0.1-1.7,0.3-2.1,1C26.3-25.9,26.5-25.2,26-24.6z
			"/>
		<circle id="Ellipse_113" class="st13" cx="87.5" cy="-11" r="16.9"/>
		<path id="Path_618" class="st3" d="M97.2-11h-9.1v-9.1h-2v9.1h-9.1v2h9.1v9.1h2V-9h9.1V-11z"/>
	</g>
</g>
</svg>
