<?xml version="1.0" encoding="utf-8"?>
<!-- Generator: Adobe Illustrator 24.2.1, SVG Export Plug-In . SVG Version: 6.00 Build 0)  -->
<svg version="1.1" id="Layer_1" xmlns="http://www.w3.org/2000/svg" xmlns:xlink="http://www.w3.org/1999/xlink" x="0px" y="0px"
	 viewBox="0 0 331 521" style="enable-background:new 0 0 331 521;" xml:space="preserve">
<style type="text/css">
	.st0{fill:#3F3D56;}
	.st1{fill:#2F2E41;}
	.st2{fill:#FBBEBE;}
	.st3{fill:#F34F4F;}
	.st4{opacity:0.1;enable-background:new    ;}
</style>
<g id="Group_14" transform="translate(-448.764)">
	<g transform="matrix(1, 0, 0, 1, 448.76, 0)">
		<ellipse id="Ellipse_36-2" class="st0" cx="166" cy="509.7" rx="165.5" ry="11.5"/>
	</g>
	<rect id="Rectangle_46" x="526.3" y="0.2" class="st0" width="99" height="513"/>
	<path id="Path_382" class="st1" d="M656.5,480.4l4.6-3.1c0,0,3.1,15.5-0.4,17.8s-16.2,6.2-16.2,10.8s-29,10.8-29.9,3.9
		s2.6-10.8,2.6-10.8s13.7-12.4,15.4-14.7s6-7,6-7L656.5,480.4z"/>
	<path id="Path_383" class="st1" d="M588.2,288c0,0,0.1,0.7,0.3,1.9c0.2,1.1,0.5,2.7,0.8,4.6c3.6,19.8,14,78.1,13.3,80
		c-0.9,2.3-6.8,10.8,0,13.1c0.9,0.5,1.6,1.2,2.1,2.1c1.5,2.4,2.7,5,3.6,7.7c4.1,10.7,8.4,27.8,10.9,39.7c1.1,5.2,1.9,9.4,2.1,11.6
		c0.1,0.5,0.1,1,0,1.5c-0.9,3.1,5.1,13.9,7.7,17s6.8,6.2,6,9.3s21.3,11.6,23.9,6.2s2.6-8.5,3.4-10s1.7-12.4-2.6-13.9s-1.7-28.6-6-34
		c-1.4-1.8-3.6-7.9-5.9-15.2c-0.9-2.9-1.8-5.9-2.7-9c-3.6-12.6-6.8-25.2-6.8-25.2l0.9-90.4l-47-5.4l-1.2,2.4l-2.4,4.8L588.2,288z"/>
	<path id="Path_384" class="st1" d="M585.7,436.3c0,0-6.8-6.2-10.2,0s-6.8,30.1-12.8,35.5s-13.7,32.5-5.1,34s17.9-2.3,18.8-7
		s18.8-28.6,18.8-30.9s-12-10.8-12-10.8L585.7,436.3z"/>
	<path id="Path_385" class="st1" d="M690.7,245.5c0,0-11.1,90.4-13.7,98.9s-16.2,41-20.5,46.4s-31.6,49.5-35,51.8
		s-10.2,8.5-10.2,8.5s-12.8,11.6-14.5,13.9s-16.2-4.6-17.1-9.3s0.9-12.4,1.7-15.5s-1.7-7.7,0.9-10s15.4-13.9,15.4-19.3
		s22.2-37.1,30.7-44.1s6.8-18.5,6.8-18.5v-47.1l-47-13.1c0,0,2.6-37.1,8.5-37.1S681.3,238.5,690.7,245.5z"/>
	<ellipse id="Ellipse_37" class="st2" cx="621.5" cy="90.9" rx="28.2" ry="25.5"/>
	<path id="Path_386" class="st2" d="M630.9,111c0,0,3.4,11.6,7.7,14.7s-11.1,16.2-11.1,16.2l-29,1.5l-5.1-14.7c0,0,9.4-17,6.8-27.8
		S630.9,111,630.9,111z"/>
	<path id="Path_387" class="st0" d="M642.9,124.1c0,0-7.7,0.8-9.4,3.1c-1.7,2.3-13.7,9.3-23.1,7.7s-15.4-3.9-17.1-3.1
		s-5.1,17-5.1,17l9.4,24.7l-1.7,68l-2.6,18.5c0,0-5.1-6.2,15.4-2.3s47-3.1,55.5-3.9s23.1-3.1,23.9-7.7s-2.6-21.6-2.6-21.6
		l-13.7-51.8l-8.5-27.8L642.9,124.1z"/>
	<path id="Path_388" class="st3" d="M634.8,120.6c0,0,7.2-3.5,9.8-0.4s35,7.7,35,10s6.8,64.9,5.1,70.3s3.4,11.6,3.4,11.6l6,23.2
		c0,0,16.2,44.1,9.4,45.6s-12.8,0-15.4,0s-1.7-29.4-8.5-37.1s-16.2-27-17.9-30.9s-23.1-57.2-22.2-63.4S634.8,120.6,634.8,120.6z"/>
	<path id="Path_389" class="st3" d="M599.3,124.1c0,0-6.8,0-7.7,1.5s-9.4,11.6-12.8,13.9c-3.4,2.3-15.4,12.4-15.4,14.7
		s24.8,19.3,24.8,19.3s10.2,45.6,5.1,61.1s-12.8,52.6-9.4,54.9s11.1,3.1,11.1,0s5.1-36.3,9.4-43.3s17.1-51,12-63.4
		S599.3,124.1,599.3,124.1z"/>
	<path id="Path_390" class="st2" d="M712,200.6c0,0,0.9,24-8.5,36.3c-6,8.2-11.2,17-15.4,26.3c0,0-15.4-3.9-17.9-8.5
		s-18.8-0.8-18.8-2.3s19.6-9.3,21.3-10.8s7.7-1.5,11.1-4.6s4.3-10,4.3-10l3.4-20.1L712,200.6z"/>
	<path id="Path_391" class="st1" d="M640.9,75.2c2.2,0,4.3-0.5,6.3-1.3c4.3-2.1,5.4-8.1,2.2-11.3c-0.9-0.8-1.9-1.6-3-2.2l-6.5-4
		c-2.8-1.9-5.9-3.4-9.2-4.4c-3.1-0.6-6.2-0.8-9.4-0.5c-6.1,0.2-12.1,1.2-17.9,3c-5.7,1.9-11.1,5.1-14.5,9.6
		c-5.5,7.2-5.6,16.9-2.5,25.2s8.8,15.5,14.4,22.6l2.9-13c0.1-1.2,0.7-2.3,1.7-3.1c2.6-1.7,5.9,1.8,9.1,1.8c2-0.1,3.8-1.4,4.6-3.3
		c0.6-1.8,1-3.7,1-5.6c0.4-4,1.9-9.5,6.1-11.7C630.2,74.9,636.6,75.5,640.9,75.2z"/>
	<path id="Path_392" class="st4" d="M639.4,288.6c0,0-2.9,75.5-4.6,77.8s0-78.1,0-78.1L639.4,288.6z"/>
	<path id="Path_393" class="st3" d="M672.8,130.3h6.8c0,0,29,35.6,25.6,37.9s0,8.5,0,8.5l6.8,11.6c0,0,8.5,7,6,8.5s-6,7.7-6,7.7
		s-17.1-2.3-22.2,7l-11.1-12.7L672.8,130.3z"/>
	<path id="Path_394" class="st2" d="M595.1,196.8c0,0,18.8,0.8,40.1-11.6l21.3-8.5c0,0,18.8-26.3,20.5-21.6s-2.6,13.9-2.6,13.9
		s25.8,10.8,26.4,12.2s-14.5-2.2-14.5-2.2s2.6,14.7-12,15.5s-18.8-2.3-18.8-2.3s-61.5,46.4-71.7,31.7S595.1,196.8,595.1,196.8z"/>
	<path id="Path_395" class="st3" d="M572.9,151.2l-9.4,3.1v23.2l-3.4,4.6c0,0,0.9,9.3,3.4,11.6s7.7,1.5,6,7c-1,3.5-1.3,7.2-0.9,10.8
		c0,0,15.4,17.8,16.2,15.5s12.8-30.9,14.5-30.9s-17.1-44.8-17.1-44.8L572.9,151.2z"/>
	<path id="Path_396" class="st1" d="M685.1,268.3c0,0,8.8-7.7,4.4-8.1s-19.8-8.1-22.3-4.3S685.1,268.3,685.1,268.3z"/>
</g>
</svg>
