<?xml version="1.0" encoding="utf-8"?>
<!-- Generator: Adobe Illustrator 24.2.1, SVG Export Plug-In . SVG Version: 6.00 Build 0)  -->
<svg version="1.1" id="Layer_1" xmlns="http://www.w3.org/2000/svg" xmlns:xlink="http://www.w3.org/1999/xlink" x="0px" y="0px"
	 viewBox="0 0 187.5 275" style="enable-background:new 0 0 187.5 275;" xml:space="preserve">
<style type="text/css">
	.st0{fill:#3F3D56;}
	.st1{fill:#FFFFFF;}
	.st2{fill:#CCCCCC;}
	.st3{fill:#E6E6E6;}
	.st4{fill:#E4E4E4;}
	.st5{fill:#6C63FF;}
	.st6{fill:#FFB9B9;}
	.st7{fill:#2F2E41;}
	.st8{fill:#575A89;}
	.st9{opacity:0.1;enable-background:new    ;}
</style>
<g id="Group_52" transform="translate(-1103.705 -1343)">
	<g id="Group_51" transform="translate(1103.705 1343)">
		<g id="Group_50">
			<g id="Group_44">
				<g id="Group_37" transform="translate(0 9.242)">
					<path id="Path_702" class="st0" d="M132.4,64.4h-1.5v-40c0-12.8-10.4-23.2-23.2-23.2l0,0H23C10.2,1.2-0.1,11.6-0.1,24.4l0,0
						v219.4c0,12.8,10.4,23.2,23.1,23.2c0,0,0,0,0,0h84.7c12.8,0,23.2-10.4,23.2-23.2l0,0v-151h1.5V64.4z"/>
					<path id="Path_703" class="st1" d="M108.7,7.3H97.6c1.7,4.2-0.3,9-4.5,10.7c-1,0.4-2,0.6-3.1,0.6H41.5c-4.5,0-8.2-3.7-8.2-8.2
						c0-1.1,0.2-2.1,0.6-3.1H23.6C14,7.3,6.3,15,6.3,24.6l0,0v219.1c0,9.5,7.7,17.3,17.3,17.3l0,0h85.2c9.5,0,17.3-7.7,17.3-17.3
						l0,0V24.6C126,15,118.3,7.3,108.7,7.3z"/>
				</g>
				<path id="Path_704" class="st2" d="M22.4,42.6h71.1v39h-5.1l1.2,12.6L79.1,81.6H22.4V42.6z"/>
				<g id="Group_38" transform="translate(15.325 99.736)">
					<path id="Path_705" class="st3" d="M0.9,1.3c-0.5,0-1,0.4-1,1v16.4c0,0.5,0.4,1,1,1h66c0.5,0,1-0.4,1-1V2.2c0-0.5-0.4-1-1-1
						H0.9z"/>
					<path id="Path_706" class="st1" d="M1,18.5h65.7V2.4H1V18.5z"/>
					<path id="Path_707" class="st4" d="M8.4,7C8,7,7.6,7.4,7.6,7.8S8,8.7,8.4,8.7l0,0h50.8c0.5,0,0.9-0.4,0.9-0.9S59.7,7,59.2,7
						H8.4z"/>
					<path id="Path_708" class="st4" d="M8.4,12.1c-0.5,0-0.9,0.4-0.9,0.9s0.4,0.9,0.9,0.9l0,0h50.8c0.5,0,0.9-0.4,0.9-0.9
						s-0.4-0.9-0.9-0.9H8.4z"/>
				</g>
				<g id="Group_39" transform="translate(15.325 123.788)">
					<path id="Path_705-2" class="st3" d="M0.9,1.3c-0.5,0-1,0.4-1,1v16.4c0,0.5,0.4,1,1,1h66c0.5,0,1-0.4,1-1V2.2c0-0.5-0.4-1-1-1
						H0.9z"/>
					<path id="Path_706-2" class="st1" d="M1,18.5h65.7V2.4H1V18.5z"/>
					<path id="Path_707-2" class="st4" d="M8.4,7C8,7,7.6,7.4,7.6,7.8S8,8.7,8.4,8.7l0,0h50.8c0.5,0,0.9-0.4,0.9-0.9S59.7,7,59.2,7
						H8.4z"/>
					<path id="Path_708-2" class="st4" d="M8.4,12.1c-0.5,0-0.9,0.4-0.9,0.9s0.4,0.9,0.9,0.9l0,0h50.8c0.5,0,0.9-0.4,0.9-0.9
						s-0.4-0.9-0.9-0.9H8.4z"/>
				</g>
				<g id="Group_40" transform="translate(15.325 147.84)">
					<path id="Path_705-3" class="st3" d="M0.9,1.3c-0.5,0-1,0.4-1,1v16.4c0,0.5,0.4,1,1,1h66c0.5,0,1-0.4,1-1V2.2c0-0.5-0.4-1-1-1
						H0.9z"/>
					<path id="Path_706-3" class="st1" d="M1,18.5h65.7V2.4H1V18.5z"/>
					<path id="Path_707-3" class="st4" d="M8.4,7C8,7,7.6,7.4,7.6,7.8S8,8.7,8.4,8.7l0,0h50.8c0.5,0,0.9-0.4,0.9-0.9S59.7,7,59.2,7
						H8.4z"/>
					<path id="Path_708-3" class="st4" d="M8.4,12.1c-0.5,0-0.9,0.4-0.9,0.9s0.4,0.9,0.9,0.9l0,0h50.8c0.5,0,0.9-0.4,0.9-0.9
						s-0.4-0.9-0.9-0.9H8.4z"/>
				</g>
				<g id="Group_41" transform="translate(15.325 173.017)">
					<path id="Path_705-4" class="st3" d="M0.9,1.3c-0.5,0-1,0.4-1,1v16.4c0,0.5,0.4,1,1,1h66c0.5,0,1-0.4,1-1V2.2c0-0.5-0.4-1-1-1
						H0.9z"/>
					<path id="Path_706-4" class="st1" d="M1,18.5h65.7V2.4H1V18.5z"/>
					<path id="Path_707-4" class="st4" d="M8.4,7C8,7,7.6,7.4,7.6,7.8S8,8.7,8.4,8.7l0,0h50.8c0.5,0,0.9-0.4,0.9-0.9S59.7,7,59.2,7
						H8.4z"/>
					<path id="Path_708-4" class="st4" d="M8.4,12.1c-0.5,0-0.9,0.4-0.9,0.9s0.4,0.9,0.9,0.9l0,0h50.8c0.5,0,0.9-0.4,0.9-0.9
						s-0.4-0.9-0.9-0.9H8.4z"/>
				</g>
				<g id="Group_42" transform="translate(15.325 198.194)">
					<path id="Path_705-5" class="st3" d="M0.9,1.3c-0.5,0-1,0.4-1,1v16.4c0,0.5,0.4,1,1,1h66c0.5,0,1-0.4,1-1V2.2c0-0.5-0.4-1-1-1
						H0.9z"/>
					<path id="Path_706-5" class="st1" d="M1,18.5h65.7V2.4H1V18.5z"/>
					<path id="Path_707-5" class="st4" d="M8.4,7C8,7,7.6,7.4,7.6,7.8S8,8.7,8.4,8.7l0,0h50.8c0.5,0,0.9-0.4,0.9-0.9S59.7,7,59.2,7
						H8.4z"/>
					<path id="Path_708-5" class="st4" d="M8.4,12.1c-0.5,0-0.9,0.4-0.9,0.9s0.4,0.9,0.9,0.9l0,0h50.8c0.5,0,0.9-0.4,0.9-0.9
						s-0.4-0.9-0.9-0.9H8.4z"/>
				</g>
				<g id="Group_43" transform="translate(95.865 99.736)">
					<path id="Path_705-6" class="st3" d="M0.1,1.3c-0.2,2.1-0.3,4.2-0.2,6.2v104.3c-0.1,2.1,0,4.2,0.2,6.2h16.8
						c0.2-2.1,0.3-4.2,0.2-6.2V7.5c0.1-2.1,0-4.2-0.2-6.2L0.1,1.3z"/>
					<path id="Path_706-6" class="st1" d="M1,116.9h15.1V2.4H1V116.9z"/>
					<path id="Path_707-6" class="st4" d="M7.6,41c0,0.6,0,1.1,0,1.7h1.8c0-0.6,0-1.1,0-1.7H7.6z"/>
					<path id="Path_708-6" class="st4" d="M7.6,76.6c0,0.6,0,1.1,0,1.7h1.8c0-0.3,0-0.6,0-0.9c0-0.3,0-0.6,0-0.9H7.6z"/>
				</g>
				<ellipse id="Ellipse_118" cx="64.9" cy="248.9" rx="11.8" ry="12.2"/>
				<g id="Group_30" transform="translate(91.467)">
					
						<rect id="Rectangle_74" x="49.1" y="37.5" transform="matrix(0.9992 -3.875405e-02 3.875405e-02 0.9992 -1.6642 2.1302)" class="st5" width="10.1" height="12.9"/>
					<path id="Path_572" class="st6" d="M13.6,82.6c0,0-13.9-6.6-13.7-0.9s14,9.5,14,9.5L13.6,82.6z"/>
					<path id="Path_573" class="st7" d="M21.2,131.2c0,0-6.6,16.1-9,27.7s-6.1,27.5-1.4,38.9s18.3,44.6,18.4,48.2s-1.2,7.2,1.7,7.1
						s18.5-5,19.1-7.2s-5.3-7.7-5.3-7.7L30,191.9l15.4-30.1l11.1,44.8l2.2,56c0,0,10.7-3.3,12.2-0.5c0,0,4.8-6.7,5.4-9.6
						S74,194.5,74,194.5s9.8-62.9,1.9-62.6S37,113.3,21.2,131.2z"/>
					<path id="Path_574" class="st7" d="M30.8,250.1c0,0-7.3,16.1-8,16.8s-5.4,8.1-1.8,8s12.1-4.1,18.3-10.1s14.5-16.4,13.7-17.1
						s-5.9-2.6-5.9-2.6L30.8,250.1z"/>
					<path id="Path_575" class="st7" d="M59.9,259c0,0-0.4,7.2-1.8,10.1s-1.2,7.2,2.4,7.1s12.9-1.9,12.9-1.9s0.6-4.3-0.2-5
						s-3.9-8.5-2.6-10.7S59.9,259,59.9,259z"/>
					<path id="Path_576" class="st6" d="M65.2,25.2c0,0,7.6,11.9,10.6,14.7s-5.4,8.8-5.4,8.8l-15,2c0,0,0.2-13.7-0.6-15.1
						S65.2,25.2,65.2,25.2z"/>
					<path id="Path_577" class="st5" d="M52.2,40.8c0,0,3.1,5.6,6,5.5s17.7-6.4,18.4-8.6s4.9,15.6,4.9,15.6l-36.3,63.9l-8.9-6.1
						l4.3-37.5l3.5-20.3L52.2,40.8z"/>
					<path id="Path_578" class="st8" d="M77.8,98c-1.5,2.9-2.3,6.2-2.2,9.4c0,0.1,0,0.3,0,0.4c0.3,6.6,2.8,14.3,3.7,19.9
						c0.6,4,0.5,6.9-1.9,7.6c-5.7,1.7,0.8,2.8-21.2,10.2s-25.8,1-25.9-0.4s3.1-12.3,2.4-13c-0.7-0.7-10.4,9-13.4,7.7
						s-0.3-8.6-0.3-8.6s6.6-15.3,6.5-18.9s10-20.5,10-20.5L42.4,47c0,0,2.6-5.9,6.2-6.7c2.2-0.5,4.6,0,6.5,1.2l-6,13.2l-6.3,23.2
						l1.1,8.6c0,0,7.3-15.4,12.1-21.3s15-20,15-20s2.4-8.1,0.6-10.5s7.5-2.8,11.5,7.1c2.1,5.3,5.5,13.1,7.7,20.4
						c1.9,6.5,2.8,12.5,0.9,15.9C88.8,83.4,81.6,90.3,77.8,98z"/>
					<path id="Path_579" class="st9" d="M91.7,78.1c-2.9,5.3-10.2,12.2-13.9,19.9c-1-3.5-2.2-7.1-2.2-7.1s-4.5-24.3,8.9-30.5
						c2.2-0.2,4.4,0.4,6.2,1.7C92.7,68.6,93.6,74.7,91.7,78.1z"/>
					<path id="Path_580" class="st8" d="M38.5,76.6l-11.4,3.3l-15.8,0.6L9.7,94.2l25.9,1.9C35.7,96.1,42.1,77.9,38.5,76.6z"/>
					<path id="Path_581" class="st6" d="M57,122.7c0,0-15.2,2.5-11.7,7.1c3.5,4.6,16.9-0.2,16.9-0.2L57,122.7z"/>
					<path id="Path_582" class="st9" d="M75.6,107.9c0.3,6.6,2.8,14.3,3.7,19.9c-4.8,4.6-9.5,8.6-11.2,8.7
						c-3.6,0.1-9.4-0.4-11.5,0.4s-3.4-12.8-3.4-12.8s1.3-4.4,6.9-6.7C65.7,114.9,70.9,111.7,75.6,107.9z"/>
					<path id="Path_583" class="st8" d="M84.4,56.1c0,0,12.1-1.9,11.5,18.2s1.3,33-3.6,36.8S71.5,132.1,68,132.2s-9.4-0.4-11.5,0.4
						s-3.4-12.8-3.4-12.8s1.3-4.4,6.9-6.7s19-10.8,18.9-13.7s-3.4-12.8-3.4-12.8S71,62.4,84.4,56.1z"/>
					<circle id="Ellipse_92" class="st6" cx="54.5" cy="27.1" r="15.8"/>
					<path id="Path_584" class="st7" d="M43.9,4.4c-0.4,0.3-0.8,0.6-1.3,0.7c-0.5,0.1-1-0.2-1.1-0.8c-0.3,0.8-0.8,1.5-1.5,1.9
						c-0.7,0.4-1.9,0.1-2-0.8c-0.1,0.6-0.4,1.2-0.8,1.7c-0.5,0.5-1.2,0.5-1.7,0.1c0.2,1.8,0.3,3.6,0.2,5.4c0,1.8,0.7,3.6,1.9,4.9
						c2,1.7,4.9,1.3,7.5,1c0.4-0.1,0.8-0.1,1.2,0.1c1,0.4,0.9,1.8,0.9,2.8c0.2,3.8,3.1,7,6.9,7.5c1,0.2,2.1-0.1,2.9-0.7
						c0.7-0.6,1.1-1.6,2-2.1c1.4-0.8,3,0.4,4,1.6s2,2.7,3.6,2.9c2.1,0.3,3.6-1.8,4.4-3.7c2.1-5.5,2-11.6-0.4-16.9
						C66.3,0.4,51.7-1.1,43.9,4.4z"/>
				</g>
			</g>
		</g>
	</g>
</g>
</svg>
